NotoSansDisplay-CondensedLight.ufo
<glyph name="k" format="2">
  <advance width="316"/>
  <unicode hex="006B"/>
  <anchor x="159" y="0" name="bottom"/>
  <anchor x="82" y="760" name="top"/>
  <anchor x="297" y="760" name="topright"/>
  <outline>
    <contour>
      <point x="95" y="760" type="line"/>
      <point x="69" y="760" type="line"/>
      <point x="69" y="0" type="line"/>
      <point x="95" y="0" type="line"/>
      <point x="95" y="197" type="line"/>
      <point x="163" y="304" type="line"/>
      <point x="283" y="0" type="line"/>
      <point x="309" y="0" type="line"/>
      <point x="180" y="329" type="line"/>
      <point x="297" y="527" type="line"/>
      <point x="268" y="527" type="line"/>
      <point x="125" y="285" type="line" smooth="yes"/>
      <point x="114" y="266"/>
      <point x="108" y="255"/>
      <point x="95" y="233" type="curve"/>
      <point x="94" y="233" type="line"/>
      <point x="95" y="278"/>
      <point x="95" y="314"/>
      <point x="95" y="361" type="curve" smooth="yes"/>
    </contour>
  </outline>
</glyph>
<glyph name="tbar" format="2">
  <advance width="209"/>
  <unicode hex="0167"/>
  <anchor x="130" y="0" name="bottom"/>
  <anchor x="83" y="656" name="top"/>
  <anchor x="102" y="264" name="center"/>
  <anchor x="184" y="656" name="topright"/>
  <outline>
    <contour>
      <point x="23" y="285" type="line"/>
      <point x="198" y="285" type="line"/>
      <point x="198" y="310" type="line"/>
      <point x="23" y="310" type="line"/>
    </contour>
    <component base="t"/>
  </outline>
</glyph>
<glyph name="uni0191" format="2">
  <advance width="445"/>
  <unicode hex="0191"/>
  <anchor x="113" y="0" name="bottom"/>
  <anchor x="313" y="714" name="top"/>
  <anchor x="435" y="714" name="topright"/>
  <outline>
    <contour>
      <point x="112" y="-15" type="curve" smooth="yes"/>
      <point x="182" y="-15"/>
      <point x="224" y="30"/>
      <point x="224" y="130" type="curve" smooth="yes"/>
      <point x="224" y="363" type="line"/>
      <point x="415" y="363" type="line"/>
      <point x="415" y="388" type="line"/>
      <point x="224" y="388" type="line"/>
      <point x="224" y="689" type="line"/>
      <point x="427" y="689" type="line"/>
      <point x="427" y="714" type="line"/>
      <point x="198" y="714" type="line"/>
      <point x="198" y="129" type="line" smooth="yes"/>
      <point x="198" y="49"/>
      <point x="168" y="10"/>
      <point x="113" y="10" type="curve" smooth="yes"/>
      <point x="53" y="10"/>
      <point x="26" y="55"/>
      <point x="26" y="117" type="curve" smooth="yes"/>
      <point x="26" y="134"/>
      <point x="28" y="152"/>
      <point x="31" y="169" type="curve"/>
      <point x="6" y="176" type="line"/>
      <point x="2" y="159"/>
      <point x="0" y="139"/>
      <point x="0" y="120" type="curve" smooth="yes"/>
      <point x="0" y="36"/>
      <point x="41" y="-15"/>
    </contour>
  </outline>
</glyph>
<glyph name="florin" format="2">
  <advance width="296"/>
  <unicode hex="0192"/>
  <anchor x="92" y="0" name="bottom"/>
  <anchor x="242" y="765" name="top"/>
  <anchor x="337" y="765" name="topright"/>
  <outline>
    <contour>
      <point x="92" y="-15" type="curve" smooth="yes"/>
      <point x="161" y="-15"/>
      <point x="194" y="36"/>
      <point x="194" y="112" type="curve" smooth="yes"/>
      <point x="194" y="502" type="line"/>
      <point x="269" y="502" type="line"/>
      <point x="269" y="527" type="line"/>
      <point x="194" y="527" type="line"/>
      <point x="194" y="598" type="line" smooth="yes"/>
      <point x="194" y="701"/>
      <point x="211" y="741"/>
      <point x="263" y="741" type="curve" smooth="yes"/>
      <point x="278" y="741"/>
      <point x="296" y="738"/>
      <point x="310" y="730" type="curve"/>
      <point x="320" y="752" type="line"/>
      <point x="306" y="759"/>
      <point x="287" y="765"/>
      <point x="263" y="765" type="curve" smooth="yes"/>
      <point x="192" y="765"/>
      <point x="168" y="715"/>
      <point x="168" y="605" type="curve" smooth="yes"/>
      <point x="168" y="528" type="line"/>
      <point x="100" y="523" type="line"/>
      <point x="100" y="502" type="line"/>
      <point x="168" y="502" type="line"/>
      <point x="168" y="112" type="line" smooth="yes"/>
      <point x="168" y="47"/>
      <point x="142" y="10"/>
      <point x="91" y="10" type="curve" smooth="yes"/>
      <point x="43" y="10"/>
      <point x="14" y="45"/>
      <point x="14" y="100" type="curve" smooth="yes"/>
      <point x="14" y="123"/>
      <point x="17" y="142"/>
      <point x="19" y="152" type="curve"/>
      <point x="-7" y="157" type="line"/>
      <point x="-11" y="140"/>
      <point x="-13" y="121"/>
      <point x="-13" y="101" type="curve" smooth="yes"/>
      <point x="-13" y="29"/>
      <point x="29" y="-15"/>
    </contour>
  </outline>
</glyph>
<glyph name="uni023C" format="2">
  <advance width="313"/>
  <unicode hex="023C"/>
  <anchor x="192" y="-188" name="bottom"/>
  <anchor x="201" y="760" name="top"/>
  <anchor x="285" y="527" name="topright"/>
  <outline>
    <contour>
      <point x="304" y="760" type="line"/>
      <point x="277" y="760" type="line"/>
      <point x="68" y="-188" type="line"/>
      <point x="95" y="-188" type="line"/>
    </contour>
    <component base="c"/>
  </outline>
</glyph>
<glyph name="uni024C" format="2">
  <advance width="393"/>
  <unicode hex="024C"/>
  <anchor x="207" y="0" name="bottom"/>
  <anchor x="197" y="714" name="top"/>
  <anchor x="374" y="714" name="topright"/>
  <outline>
    <contour>
      <point x="103" y="322" type="line"/>
      <point x="103" y="348" type="line"/>
      <point x="5" y="348" type="line"/>
      <point x="5" y="322" type="line"/>
    </contour>
    <component base="R"/>
  </outline>
</glyph>
<glyph name="uni029F" format="2">
  <advance width="263"/>
  <unicode hex="029F"/>
  <anchor x="132" y="0" name="bottom"/>
  <anchor x="132" y="527" name="top"/>
  <outline>
    <contour>
      <point x="69" y="0" type="line"/>
      <point x="255" y="0" type="line"/>
      <point x="255" y="25" type="line"/>
      <point x="95" y="25" type="line"/>
      <point x="95" y="527" type="line"/>
      <point x="69" y="527" type="line"/>
    </contour>
  </outline>
</glyph>
<glyph name="righttackbelowcomb" format="2">
  <unicode hex="0319"/>
  <anchor x="3" y="13" name="_bottom"/>
  <anchor x="3" y="-209" name="bottom"/>
  <outline>
    <contour>
      <point x="50" y="-135" type="line"/>
      <point x="50" y="-110" type="line"/>
      <point x="-19" y="-110" type="line"/>
      <point x="-19" y="-37" type="line"/>
      <point x="-45" y="-37" type="line"/>
      <point x="-45" y="-209" type="line"/>
      <point x="-19" y="-209" type="line"/>
      <point x="-19" y="-135" type="line"/>
    </contour>
  </outline>
</glyph>
<glyph name="doublemacroncomb" format="2">
  <unicode hex="035E"/>
  <anchor x="-1" y="527" name="_top"/>
  <anchor x="-1" y="659" name="top"/>
  <outline>
    <contour>
      <point x="186" y="634" type="line"/>
      <point x="186" y="659" type="line"/>
      <point x="-188" y="659" type="line"/>
      <point x="-188" y="634" type="line"/>
    </contour>
  </outline>
</glyph>
<glyph name="uni0374" format="2">
  <advance width="170"/>
  <unicode hex="0374"/>
  <outline>
    <contour>
      <point x="29" y="565" type="curve"/>
      <point x="29" y="554" type="line"/>
      <point x="45" y="554" type="line"/>
      <point x="80" y="596"/>
      <point x="120" y="653"/>
      <point x="141" y="707" type="curve"/>
      <point x="141" y="714" type="line"/>
      <point x="110" y="714" type="line"/>
      <point x="88" y="656"/>
      <point x="65" y="615"/>
    </contour>
  </outline>
</glyph>
<glyph name="uni0375" format="2">
  <advance width="170"/>
  <unicode hex="0375"/>
  <outline>
    <contour>
      <point x="141" y="-71" type="curve"/>
      <point x="141" y="-60" type="line"/>
      <point x="125" y="-60" type="line"/>
      <point x="90" y="-102"/>
      <point x="50" y="-159"/>
      <point x="29" y="-213" type="curve"/>
      <point x="29" y="-220" type="line"/>
      <point x="60" y="-220" type="line"/>
      <point x="82" y="-162"/>
      <point x="106" y="-121"/>
    </contour>
  </outline>
</glyph>
<glyph name="tonos" format="2">
  <advance width="535"/>
  <unicode hex="0384"/>
  <anchor x="291" y="527" name="_top"/>
  <outline>
    <contour>
      <point x="251" y="606" type="line"/>
      <point x="268" y="606" type="line"/>
      <point x="288" y="653"/>
      <point x="317" y="722"/>
      <point x="330" y="776" type="curve"/>
      <point x="330" y="787" type="line"/>
      <point x="302" y="787" type="line"/>
      <point x="294" y="745"/>
      <point x="266" y="651"/>
      <point x="251" y="615" type="curve"/>
    </contour>
  </outline>
</glyph>
<glyph name="dieresistonos" format="2">
  <advance width="507"/>
  <unicode hex="0385"/>
  <anchor x="254" y="527" name="_top"/>
  <outline>
    <contour>
      <point x="288" y="770" type="line"/>
      <point x="259" y="770" type="line"/>
      <point x="257" y="732"/>
      <point x="247" y="659"/>
      <point x="240" y="628" type="curve"/>
      <point x="240" y="617" type="line"/>
      <point x="259" y="617" type="line"/>
      <point x="271" y="656"/>
      <point x="284" y="723"/>
      <point x="288" y="760" type="curve"/>
    </contour>
    <contour>
      <point x="181" y="661" type="curve" smooth="yes"/>
      <point x="165" y="661"/>
      <point x="156" y="645"/>
      <point x="156" y="628" type="curve" smooth="yes"/>
      <point x="156" y="611"/>
      <point x="165" y="596"/>
      <point x="181" y="596" type="curve" smooth="yes"/>
      <point x="194" y="596"/>
      <point x="204" y="609"/>
      <point x="204" y="628" type="curve" smooth="yes"/>
      <point x="204" y="647"/>
      <point x="194" y="661"/>
    </contour>
    <contour>
      <point x="326" y="661" type="curve" smooth="yes"/>
      <point x="311" y="661"/>
      <point x="301" y="646"/>
      <point x="301" y="629" type="curve" smooth="yes"/>
      <point x="301" y="611"/>
      <point x="311" y="596"/>
      <point x="326" y="596" type="curve" smooth="yes"/>
      <point x="341" y="596"/>
      <point x="351" y="610"/>
      <point x="351" y="629" type="curve" smooth="yes"/>
      <point x="351" y="648"/>
      <point x="340" y="661"/>
    </contour>
  </outline>
</glyph>
<glyph name="Gamma" format="2">
  <advance width="322"/>
  <unicode hex="0393"/>
  <anchor x="161" y="0" name="bottom"/>
  <anchor x="193" y="714" name="top"/>
  <outline>
    <contour>
      <point x="314" y="714" type="line"/>
      <point x="76" y="714" type="line"/>
      <point x="76" y="0" type="line"/>
      <point x="102" y="0" type="line"/>
      <point x="102" y="689" type="line"/>
      <point x="314" y="689" type="line"/>
    </contour>
  </outline>
</glyph>
<glyph name="Delta" format="2">
  <advance width="349"/>
  <unicode hex="0394"/>
  <anchor x="179" y="0" name="bottom"/>
  <anchor x="179" y="714" name="top"/>
  <outline>
    <contour>
      <point x="191" y="714" type="line"/>
      <point x="160" y="714" type="line"/>
      <point x="11" y="25" type="line"/>
      <point x="11" y="0" type="line"/>
      <point x="338" y="0" type="line"/>
      <point x="338" y="25" type="line"/>
    </contour>
    <contour>
      <point x="311" y="25" type="line"/>
      <point x="37" y="25" type="line"/>
      <point x="137" y="498" type="line" smooth="yes"/>
      <point x="149" y="554"/>
      <point x="166" y="634"/>
      <point x="176" y="690" type="curve"/>
      <point x="183" y="644"/>
      <point x="199" y="561"/>
      <point x="212" y="500" type="curve" smooth="yes"/>
    </contour>
  </outline>
</glyph>
<glyph name="Theta" format="2">
  <advance width="511"/>
  <unicode hex="0398"/>
  <anchor x="248" y="0" name="bottom"/>
  <anchor x="248" y="714" name="top"/>
  <anchor x="248" y="357" name="center"/>
  <anchor x="477" y="714" name="topright"/>
  <outline>
    <contour>
      <point x="358" y="373" type="line"/>
      <point x="139" y="373" type="line"/>
      <point x="139" y="348" type="line"/>
      <point x="358" y="348" type="line"/>
    </contour>
    <component base="O"/>
  </outline>
</glyph>
<glyph name="Lambda" format="2">
  <advance width="340"/>
  <unicode hex="039B"/>
  <anchor x="170" y="0" name="bottom"/>
  <anchor x="170" y="714" name="top"/>
  <outline>
    <contour>
      <point x="187" y="714" type="line"/>
      <point x="154" y="714" type="line"/>
      <point x="0" y="0" type="line"/>
      <point x="26" y="0" type="line"/>
      <point x="132" y="498" type="line" smooth="yes"/>
      <point x="144" y="554"/>
      <point x="161" y="634"/>
      <point x="171" y="690" type="curve"/>
      <point x="177" y="644"/>
      <point x="194" y="561"/>
      <point x="207" y="500" type="curve" smooth="yes"/>
      <point x="313" y="0" type="line"/>
      <point x="340" y="0" type="line"/>
    </contour>
  </outline>
</glyph>
<glyph name="Xi" format="2">
  <advance width="364"/>
  <unicode hex="039E"/>
  <anchor x="182" y="0" name="bottom"/>
  <anchor x="182" y="714" name="top"/>
  <outline>
    <contour>
      <point x="46" y="0" type="line"/>
      <point x="318" y="0" type="line"/>
      <point x="318" y="25" type="line"/>
      <point x="46" y="25" type="line"/>
    </contour>
    <contour>
      <point x="73" y="363" type="line"/>
      <point x="291" y="363" type="line"/>
      <point x="291" y="388" type="line"/>
      <point x="73" y="388" type="line"/>
    </contour>
    <contour>
      <point x="56" y="689" type="line"/>
      <point x="309" y="689" type="line"/>
      <point x="309" y="714" type="line"/>
      <point x="56" y="714" type="line"/>
    </contour>
  </outline>
</glyph>
<glyph name="Pi" format="2">
  <advance width="476"/>
  <unicode hex="03A0"/>
  <anchor x="239" y="0" name="bottom"/>
  <anchor x="239" y="714" name="top"/>
  <outline>
    <contour>
      <point x="76" y="0" type="line"/>
      <point x="102" y="0" type="line"/>
      <point x="102" y="689" type="line"/>
      <point x="374" y="689" type="line"/>
      <point x="374" y="0" type="line"/>
      <point x="400" y="0" type="line"/>
      <point x="400" y="714" type="line"/>
      <point x="76" y="714" type="line"/>
    </contour>
  </outline>
</glyph>
<glyph name="Sigma" format="2">
  <advance width="357"/>
  <unicode hex="03A3"/>
  <anchor x="179" y="0" name="bottom"/>
  <anchor x="179" y="714" name="top"/>
  <outline>
    <contour>
      <point x="29" y="0" type="line"/>
      <point x="336" y="0" type="line"/>
      <point x="336" y="25" type="line"/>
      <point x="138" y="25" type="line" smooth="yes"/>
      <point x="94" y="25"/>
      <point x="70" y="24"/>
      <point x="56" y="23" type="curve"/>
      <point x="236" y="372" type="line"/>
      <point x="66" y="690" type="line"/>
      <point x="87" y="689"/>
      <point x="105" y="689"/>
      <point x="121" y="689" type="curve" smooth="yes"/>
      <point x="322" y="689" type="line"/>
      <point x="322" y="714" type="line"/>
      <point x="35" y="714" type="line"/>
      <point x="35" y="696" type="line"/>
      <point x="207" y="372" type="line"/>
      <point x="29" y="22" type="line"/>
    </contour>
  </outline>
</glyph>
<glyph name="Psi" format="2">
  <advance width="527"/>
  <unicode hex="03A8"/>
  <anchor x="264" y="0" name="bottom"/>
  <anchor x="264" y="714" name="top"/>
  <outline>
    <contour>
      <point x="460" y="484" type="curve" smooth="yes"/>
      <point x="460" y="714" type="line"/>
      <point x="434" y="714" type="line"/>
      <point x="434" y="491" type="line" smooth="yes"/>
      <point x="434" y="323"/>
      <point x="394" y="255"/>
      <point x="277" y="249" type="curve"/>
      <point x="277" y="714" type="line"/>
      <point x="251" y="714" type="line"/>
      <point x="251" y="249" type="line"/>
      <point x="123" y="254"/>
      <point x="94" y="343"/>
      <point x="94" y="494" type="curve" smooth="yes"/>
      <point x="94" y="714" type="line"/>
      <point x="68" y="714" type="line"/>
      <point x="68" y="489" type="line" smooth="yes"/>
      <point x="68" y="288"/>
      <point x="133" y="229"/>
      <point x="251" y="225" type="curve"/>
      <point x="251" y="0" type="line"/>
      <point x="277" y="0" type="line"/>
      <point x="277" y="225" type="line"/>
      <point x="404" y="229"/>
      <point x="460" y="300"/>
    </contour>
  </outline>
</glyph>
<glyph name="Omega" format="2">
  <advance width="508"/>
  <unicode hex="03A9"/>
  <anchor x="255" y="0" name="bottom"/>
  <anchor x="255" y="714" name="top"/>
  <anchor x="19" y="714" name="topleft"/>
  <outline>
    <contour>
      <point x="256" y="699" type="curve" smooth="yes"/>
      <point x="361" y="699"/>
      <point x="427" y="591"/>
      <point x="427" y="374" type="curve" smooth="yes"/>
      <point x="427" y="203"/>
      <point x="382" y="78"/>
      <point x="294" y="16" type="curve"/>
      <point x="294" y="0" type="line"/>
      <point x="477" y="0" type="line"/>
      <point x="477" y="25" type="line"/>
      <point x="336" y="25" type="line"/>
      <point x="406" y="86"/>
      <point x="455" y="189"/>
      <point x="455" y="373" type="curve" smooth="yes"/>
      <point x="455" y="613"/>
      <point x="379" y="724"/>
      <point x="256" y="724" type="curve" smooth="yes"/>
      <point x="131" y="724"/>
      <point x="53" y="610"/>
      <point x="53" y="376" type="curve" smooth="yes"/>
      <point x="53" y="197"/>
      <point x="107" y="90"/>
      <point x="172" y="25" type="curve"/>
      <point x="31" y="25" type="line"/>
      <point x="31" y="0" type="line"/>
      <point x="212" y="0" type="line"/>
      <point x="212" y="16" type="line"/>
      <point x="144" y="71"/>
      <point x="81" y="201"/>
      <point x="81" y="376" type="curve" smooth="yes"/>
      <point x="81" y="587"/>
      <point x="150" y="699"/>
    </contour>
  </outline>
</glyph>
<glyph name="alpha" format="2">
  <advance width="430"/>
  <unicode hex="03B1"/>
  <anchor x="215" y="0" name="bottom"/>
  <anchor x="216" y="527" name="top"/>
  <outline>
    <contour>
      <point x="190" y="15" type="curve" smooth="yes"/>
      <point x="115" y="15"/>
      <point x="72" y="95"/>
      <point x="72" y="257" type="curve" smooth="yes"/>
      <point x="72" y="418"/>
      <point x="114" y="512"/>
      <point x="199" y="512" type="curve" smooth="yes"/>
      <point x="274" y="512"/>
      <point x="317" y="440"/>
      <point x="317" y="319" type="curve" smooth="yes"/>
      <point x="317" y="222" type="line" smooth="yes"/>
      <point x="317" y="118"/>
      <point x="276" y="15"/>
    </contour>
    <contour>
      <point x="189" y="-10" type="curve" smooth="yes"/>
      <point x="264" y="-10"/>
      <point x="303" y="51"/>
      <point x="316" y="105" type="curve"/>
      <point x="318" y="105" type="line"/>
      <point x="319" y="22"/>
      <point x="339" y="-10"/>
      <point x="384" y="-10" type="curve" smooth="yes"/>
      <point x="403" y="-10"/>
      <point x="414" y="-6"/>
      <point x="422" y="-3" type="curve"/>
      <point x="422" y="22" type="line"/>
      <point x="412" y="17"/>
      <point x="397" y="15"/>
      <point x="388" y="15" type="curve" smooth="yes"/>
      <point x="357" y="15"/>
      <point x="343" y="40"/>
      <point x="343" y="126" type="curve" smooth="yes"/>
      <point x="343" y="367" type="line" smooth="yes"/>
      <point x="343" y="455"/>
      <point x="348" y="494"/>
      <point x="357" y="527" type="curve"/>
      <point x="336" y="527" type="line"/>
      <point x="325" y="498"/>
      <point x="320" y="474"/>
      <point x="316" y="448" type="curve"/>
      <point x="313" y="448" type="line"/>
      <point x="297" y="502"/>
      <point x="253" y="537"/>
      <point x="198" y="537" type="curve" smooth="yes"/>
      <point x="108" y="537"/>
      <point x="46" y="452"/>
      <point x="46" y="257" type="curve" smooth="yes"/>
      <point x="46" y="82"/>
      <point x="95" y="-10"/>
    </contour>
  </outline>
</glyph>
<glyph name="beta" format="2">
  <advance width="407"/>
  <unicode hex="03B2"/>
  <anchor x="224" y="0" name="bottom"/>
  <anchor x="204" y="765" name="top"/>
  <anchor x="386" y="765" name="topright"/>
  <outline>
    <contour>
      <point x="208" y="765" type="curve" smooth="yes"/>
      <point x="119" y="765"/>
      <point x="69" y="694"/>
      <point x="69" y="576" type="curve" smooth="yes"/>
      <point x="69" y="-232" type="line"/>
      <point x="95" y="-232" type="line"/>
      <point x="95" y="34" type="line"/>
      <point x="120" y="10"/>
      <point x="159" y="-10"/>
      <point x="210" y="-10" type="curve" smooth="yes"/>
      <point x="313" y="-10"/>
      <point x="362" y="78"/>
      <point x="362" y="203" type="curve" smooth="yes"/>
      <point x="362" y="322"/>
      <point x="318" y="389"/>
      <point x="246" y="400" type="curve"/>
      <point x="246" y="403" type="line"/>
      <point x="297" y="413"/>
      <point x="340" y="470"/>
      <point x="340" y="583" type="curve" smooth="yes"/>
      <point x="340" y="697"/>
      <point x="296" y="765"/>
    </contour>
    <contour>
      <point x="208" y="740" type="curve" smooth="yes"/>
      <point x="277" y="740"/>
      <point x="313" y="687"/>
      <point x="313" y="582" type="curve" smooth="yes"/>
      <point x="313" y="467"/>
      <point x="270" y="413"/>
      <point x="196" y="413" type="curve" smooth="yes"/>
      <point x="173" y="413" type="line"/>
      <point x="173" y="388" type="line"/>
      <point x="194" y="388" type="line" smooth="yes"/>
      <point x="296" y="388"/>
      <point x="336" y="319"/>
      <point x="336" y="206" type="curve" smooth="yes"/>
      <point x="336" y="92"/>
      <point x="295" y="15"/>
      <point x="209" y="15" type="curve" smooth="yes"/>
      <point x="165" y="15"/>
      <point x="121" y="36"/>
      <point x="95" y="61" type="curve"/>
      <point x="95" y="572" type="line" smooth="yes"/>
      <point x="95" y="679"/>
      <point x="135" y="740"/>
    </contour>
  </outline>
</glyph>
<glyph name="gamma" format="2">
  <advance width="284"/>
  <unicode hex="03B3"/>
  <anchor x="143" y="-232" name="bottom"/>
  <anchor x="143" y="527" name="top"/>
  <anchor x="265" y="527" name="topright"/>
  <outline>
    <contour>
      <point x="279" y="527" type="line"/>
      <point x="252" y="527" type="line"/>
      <point x="177" y="197" type="line" smooth="yes"/>
      <point x="161" y="125"/>
      <point x="151" y="90"/>
      <point x="145" y="42" type="curve"/>
      <point x="144" y="42" type="line"/>
      <point x="139" y="82"/>
      <point x="123" y="138"/>
      <point x="111" y="191" type="curve" smooth="yes"/>
      <point x="32" y="527" type="line"/>
      <point x="5" y="527" type="line"/>
      <point x="129" y="5" type="line"/>
      <point x="122" y="-50"/>
      <point x="108" y="-150"/>
      <point x="108" y="-232" type="curve"/>
      <point x="133" y="-232" type="line"/>
      <point x="133" y="-156"/>
      <point x="143" y="-54"/>
      <point x="169" y="58" type="curve" smooth="yes"/>
    </contour>
  </outline>
</glyph>
<glyph name="delta" format="2">
  <advance width="397"/>
  <unicode hex="03B4"/>
  <anchor x="198" y="0" name="bottom"/>
  <anchor x="198" y="762" name="top"/>
  <outline>
    <contour>
      <point x="234" y="762" type="curve" smooth="yes"/>
      <point x="160" y="762"/>
      <point x="99" y="719"/>
      <point x="99" y="640" type="curve" smooth="yes"/>
      <point x="99" y="572"/>
      <point x="143" y="523"/>
      <point x="193" y="467" type="curve"/>
      <point x="101" y="423"/>
      <point x="45" y="325"/>
      <point x="45" y="208" type="curve" smooth="yes"/>
      <point x="45" y="94"/>
      <point x="96" y="-10"/>
      <point x="202" y="-10" type="curve" smooth="yes"/>
      <point x="306" y="-10"/>
      <point x="353" y="90"/>
      <point x="353" y="204" type="curve" smooth="yes"/>
      <point x="353" y="330"/>
      <point x="295" y="396"/>
      <point x="227" y="468" type="curve" smooth="yes"/>
      <point x="169" y="528"/>
      <point x="126" y="577"/>
      <point x="126" y="638" type="curve" smooth="yes"/>
      <point x="126" y="698"/>
      <point x="169" y="737"/>
      <point x="234" y="737" type="curve" smooth="yes"/>
      <point x="266" y="737"/>
      <point x="298" y="728"/>
      <point x="324" y="711" type="curve"/>
      <point x="336" y="734" type="line"/>
      <point x="314" y="749"/>
      <point x="275" y="762"/>
    </contour>
    <contour>
      <point x="211" y="449" type="curve"/>
      <point x="292" y="366"/>
      <point x="326" y="297"/>
      <point x="326" y="203" type="curve" smooth="yes"/>
      <point x="326" y="97"/>
      <point x="284" y="15"/>
      <point x="202" y="15" type="curve" smooth="yes"/>
      <point x="117" y="15"/>
      <point x="71" y="102"/>
      <point x="71" y="208" type="curve" smooth="yes"/>
      <point x="71" y="295"/>
      <point x="103" y="399"/>
    </contour>
  </outline>
</glyph>
<glyph name="zeta" format="2">
  <advance width="296"/>
  <unicode hex="03B6"/>
  <anchor x="148" y="-207" name="bottom"/>
  <anchor x="148" y="760" name="top"/>
  <outline>
    <contour>
      <point x="273" y="-77" type="curve" smooth="yes"/>
      <point x="273" y="-11"/>
      <point x="232" y="11"/>
      <point x="184" y="35" type="curve" smooth="yes"/>
      <point x="90" y="83"/>
      <point x="72" y="138"/>
      <point x="72" y="231" type="curve" smooth="yes"/>
      <point x="72" y="410"/>
      <point x="137" y="530"/>
      <point x="278" y="737" type="curve"/>
      <point x="278" y="760" type="line"/>
      <point x="65" y="760" type="line"/>
      <point x="65" y="735" type="line"/>
      <point x="196" y="735" type="line"/>
      <point x="211" y="735"/>
      <point x="233" y="736"/>
      <point x="251" y="737" type="curve"/>
      <point x="95" y="519"/>
      <point x="46" y="386"/>
      <point x="46" y="236" type="curve" smooth="yes"/>
      <point x="46" y="106"/>
      <point x="83" y="58"/>
      <point x="169" y="15" type="curve" smooth="yes"/>
      <point x="196" y="2"/>
      <point x="247" y="-20"/>
      <point x="247" y="-79" type="curve" smooth="yes"/>
      <point x="247" y="-127"/>
      <point x="212" y="-176"/>
      <point x="184" y="-207" type="curve"/>
      <point x="219" y="-207" type="line"/>
      <point x="250" y="-169"/>
      <point x="273" y="-127"/>
    </contour>
  </outline>
</glyph>
<glyph name="theta" format="2">
  <advance width="414"/>
  <unicode hex="03B8"/>
  <anchor x="208" y="0" name="bottom"/>
  <anchor x="208" y="765" name="top"/>
  <anchor x="393" y="765" name="topright"/>
  <outline>
    <contour>
      <point x="370" y="396" type="curve" smooth="yes"/>
      <point x="370" y="646"/>
      <point x="316" y="765"/>
      <point x="209" y="765" type="curve" smooth="yes"/>
      <point x="103" y="765"/>
      <point x="46" y="650"/>
      <point x="46" y="396" type="curve" smooth="yes"/>
      <point x="46" y="119"/>
      <point x="100" y="-10"/>
      <point x="207" y="-10" type="curve" smooth="yes"/>
      <point x="316" y="-10"/>
      <point x="370" y="119"/>
    </contour>
    <contour>
      <point x="208" y="15" type="curve" smooth="yes"/>
      <point x="116" y="15"/>
      <point x="75" y="145"/>
      <point x="72" y="382" type="curve"/>
      <point x="344" y="382" type="line"/>
      <point x="342" y="133"/>
      <point x="296" y="15"/>
    </contour>
    <contour>
      <point x="209" y="740" type="curve" smooth="yes"/>
      <point x="304" y="740"/>
      <point x="343" y="613"/>
      <point x="344" y="407" type="curve"/>
      <point x="72" y="407" type="line"/>
      <point x="74" y="628"/>
      <point x="120" y="740"/>
    </contour>
  </outline>
</glyph>
<glyph name="lambda" format="2">
  <advance width="327"/>
  <unicode hex="03BB"/>
  <anchor x="164" y="0" name="bottom"/>
  <anchor x="164" y="765" name="top"/>
  <outline>
    <contour>
      <point x="10" y="0" type="line"/>
      <point x="37" y="0" type="line"/>
      <point x="142" y="424" type="line" smooth="yes"/>
      <point x="147" y="443"/>
      <point x="150" y="459"/>
      <point x="153" y="476" type="curve"/>
      <point x="157" y="476" type="line"/>
      <point x="161" y="454"/>
      <point x="158" y="467"/>
      <point x="174" y="386" type="curve" smooth="yes"/>
      <point x="232" y="94" type="line" smooth="yes"/>
      <point x="248" y="16"/>
      <point x="268" y="-10"/>
      <point x="314" y="-10" type="curve" smooth="yes"/>
      <point x="326" y="-10"/>
      <point x="331" y="-8"/>
      <point x="337" y="-6" type="curve"/>
      <point x="337" y="19" type="line"/>
      <point x="333" y="17"/>
      <point x="325" y="15"/>
      <point x="315" y="15" type="curve" smooth="yes"/>
      <point x="288" y="15"/>
      <point x="271" y="33"/>
      <point x="259" y="95" type="curve" smooth="yes"/>
      <point x="145" y="663" type="line" smooth="yes"/>
      <point x="129" y="745"/>
      <point x="101" y="765"/>
      <point x="66" y="765" type="curve" smooth="yes"/>
      <point x="50" y="765"/>
      <point x="39" y="761"/>
      <point x="33" y="757" type="curve"/>
      <point x="33" y="732" type="line"/>
      <point x="40" y="736"/>
      <point x="51" y="740"/>
      <point x="63" y="740" type="curve" smooth="yes"/>
      <point x="93" y="740"/>
      <point x="109" y="713"/>
      <point x="118" y="663" type="curve" smooth="yes"/>
      <point x="143" y="533" type="line"/>
    </contour>
  </outline>
</glyph>
<glyph name="nu" format="2">
  <advance width="329"/>
  <unicode hex="03BD"/>
  <anchor x="165" y="0" name="bottom"/>
  <anchor x="165" y="527" name="top"/>
  <outline>
    <contour>
      <point x="14" y="527" type="line"/>
      <point x="122" y="0" type="line"/>
      <point x="142" y="0" type="line"/>
      <point x="239" y="142"/>
      <point x="303" y="313"/>
      <point x="303" y="527" type="curve"/>
      <point x="276" y="527" type="line"/>
      <point x="276" y="322"/>
      <point x="218" y="168"/>
      <point x="140" y="42" type="curve"/>
      <point x="137" y="42" type="line"/>
      <point x="132" y="79"/>
      <point x="120" y="137"/>
      <point x="117" y="153" type="curve" smooth="yes"/>
      <point x="42" y="527" type="line"/>
    </contour>
  </outline>
</glyph>
<glyph name="xi" format="2">
  <advance width="295"/>
  <unicode hex="03BE"/>
  <anchor x="158" y="-207" name="bottom"/>
  <anchor x="158" y="760" name="top"/>
  <outline>
    <contour>
      <point x="49" y="208" type="curve" smooth="yes"/>
      <point x="49" y="85"/>
      <point x="98" y="52"/>
      <point x="159" y="19" type="curve" smooth="yes"/>
      <point x="205" y="-6"/>
      <point x="241" y="-26"/>
      <point x="241" y="-79" type="curve" smooth="yes"/>
      <point x="241" y="-114"/>
      <point x="225" y="-149"/>
      <point x="183" y="-207" type="curve"/>
      <point x="215" y="-207" type="line"/>
      <point x="242" y="-166"/>
      <point x="268" y="-125"/>
      <point x="268" y="-75" type="curve" smooth="yes"/>
      <point x="268" y="-15"/>
      <point x="231" y="7"/>
      <point x="171" y="41" type="curve" smooth="yes"/>
      <point x="104" y="79"/>
      <point x="76" y="111"/>
      <point x="76" y="206" type="curve" smooth="yes"/>
      <point x="76" y="340"/>
      <point x="129" y="393"/>
      <point x="213" y="393" type="curve" smooth="yes"/>
      <point x="247" y="393" type="line"/>
      <point x="247" y="419" type="line"/>
      <point x="213" y="419" type="line" smooth="yes"/>
      <point x="146" y="419"/>
      <point x="93" y="456"/>
      <point x="93" y="563" type="curve" smooth="yes"/>
      <point x="93" y="681"/>
      <point x="159" y="735"/>
      <point x="252" y="735" type="curve" smooth="yes"/>
      <point x="267" y="735" type="line"/>
      <point x="267" y="760" type="line"/>
      <point x="46" y="760" type="line"/>
      <point x="46" y="735" type="line"/>
      <point x="112" y="735" type="line" smooth="yes"/>
      <point x="133" y="735"/>
      <point x="156" y="736"/>
      <point x="177" y="737" type="curve"/>
      <point x="116" y="721"/>
      <point x="65" y="669"/>
      <point x="65" y="563" type="curve" smooth="yes"/>
      <point x="65" y="450"/>
      <point x="124" y="407"/>
      <point x="180" y="407" type="curve"/>
      <point x="180" y="405" type="line"/>
      <point x="87" y="399"/>
      <point x="49" y="315"/>
    </contour>
  </outline>
</glyph>
<glyph name="pi" format="2">
  <advance width="400"/>
  <unicode hex="03C0"/>
  <anchor x="200" y="0" name="bottom"/>
  <anchor x="200" y="527" name="top"/>
  <outline>
    <contour>
      <point x="354" y="19" type="curve" smooth="yes"/>
      <point x="312" y="19"/>
      <point x="300" y="39"/>
      <point x="300" y="97" type="curve" smooth="yes"/>
      <point x="300" y="502" type="line"/>
      <point x="374" y="502" type="line"/>
      <point x="374" y="527" type="line"/>
      <point x="50" y="527" type="line"/>
      <point x="7" y="518" type="line"/>
      <point x="7" y="502" type="line"/>
      <point x="79" y="502" type="line"/>
      <point x="79" y="0" type="line"/>
      <point x="105" y="0" type="line"/>
      <point x="105" y="502" type="line"/>
      <point x="273" y="502" type="line"/>
      <point x="273" y="91" type="line" smooth="yes"/>
      <point x="273" y="25"/>
      <point x="296" y="-6"/>
      <point x="348" y="-6" type="curve" smooth="yes"/>
      <point x="365" y="-6"/>
      <point x="378" y="-3"/>
      <point x="382" y="-2" type="curve"/>
      <point x="382" y="22" type="line"/>
      <point x="372" y="20"/>
      <point x="363" y="19"/>
    </contour>
  </outline>
</glyph>
<glyph name="rho" format="2">
  <advance width="405"/>
  <unicode hex="03C1"/>
  <anchor x="202" y="-232" name="bottom"/>
  <anchor x="202" y="527" name="top"/>
  <outline>
    <contour>
      <point x="361" y="274" type="curve" smooth="yes"/>
      <point x="361" y="451"/>
      <point x="314" y="537"/>
      <point x="214" y="537" type="curve" smooth="yes"/>
      <point x="112" y="537"/>
      <point x="67" y="448"/>
      <point x="67" y="284" type="curve" smooth="yes"/>
      <point x="67" y="-232" type="line"/>
      <point x="93" y="-232" type="line"/>
      <point x="93" y="-82" type="line"/>
      <point x="93" y="-49"/>
      <point x="93" y="-12"/>
      <point x="91" y="39" type="curve"/>
      <point x="93" y="39" type="line"/>
      <point x="121" y="10"/>
      <point x="162" y="-10"/>
      <point x="208" y="-10" type="curve" smooth="yes"/>
      <point x="313" y="-10"/>
      <point x="361" y="93"/>
    </contour>
    <contour>
      <point x="214" y="512" type="curve" smooth="yes"/>
      <point x="298" y="512"/>
      <point x="334" y="426"/>
      <point x="334" y="274" type="curve" smooth="yes"/>
      <point x="334" y="105"/>
      <point x="290" y="15"/>
      <point x="207" y="15" type="curve" smooth="yes"/>
      <point x="164" y="15"/>
      <point x="116" y="40"/>
      <point x="93" y="67" type="curve"/>
      <point x="93" y="276" type="line" smooth="yes"/>
      <point x="93" y="422"/>
      <point x="128" y="512"/>
    </contour>
  </outline>
</glyph>
<glyph name="sigma1" format="2">
  <advance width="283"/>
  <unicode hex="03C2"/>
  <anchor x="142" y="-207" name="bottom"/>
  <anchor x="179" y="527" name="top"/>
  <outline>
    <contour>
      <point x="204" y="537" type="curve" smooth="yes"/>
      <point x="100" y="537"/>
      <point x="46" y="456"/>
      <point x="46" y="268" type="curve" smooth="yes"/>
      <point x="46" y="101"/>
      <point x="88" y="63"/>
      <point x="159" y="22" type="curve" smooth="yes"/>
      <point x="211" y="-8"/>
      <point x="236" y="-27"/>
      <point x="236" y="-77" type="curve" smooth="yes"/>
      <point x="236" y="-125"/>
      <point x="215" y="-161"/>
      <point x="181" y="-207" type="curve"/>
      <point x="211" y="-207" type="line"/>
      <point x="236" y="-175"/>
      <point x="264" y="-129"/>
      <point x="264" y="-78" type="curve" smooth="yes"/>
      <point x="264" y="-2"/>
      <point x="205" y="24"/>
      <point x="164" y="49" type="curve" smooth="yes"/>
      <point x="98" y="90"/>
      <point x="73" y="132"/>
      <point x="73" y="266" type="curve" smooth="yes"/>
      <point x="73" y="435"/>
      <point x="112" y="511"/>
      <point x="205" y="511" type="curve" smooth="yes"/>
      <point x="226" y="511"/>
      <point x="247" y="507"/>
      <point x="265" y="497" type="curve"/>
      <point x="273" y="521" type="line"/>
      <point x="259" y="530"/>
      <point x="234" y="537"/>
    </contour>
  </outline>
</glyph>
<glyph name="sigma" format="2">
  <advance width="392"/>
  <unicode hex="03C3"/>
  <anchor x="197" y="0" name="bottom"/>
  <anchor x="197" y="527" name="top"/>
  <outline>
    <contour>
      <point x="342" y="253" type="curve" smooth="yes"/>
      <point x="342" y="350"/>
      <point x="324" y="427"/>
      <point x="291" y="502" type="curve"/>
      <point x="375" y="502" type="line"/>
      <point x="375" y="527" type="line"/>
      <point x="232" y="527" type="line" smooth="yes"/>
      <point x="100" y="527"/>
      <point x="46" y="424"/>
      <point x="46" y="256" type="curve" smooth="yes"/>
      <point x="46" y="84"/>
      <point x="99" y="-10"/>
      <point x="197" y="-10" type="curve" smooth="yes"/>
      <point x="288" y="-10"/>
      <point x="342" y="72"/>
    </contour>
    <contour>
      <point x="73" y="256" type="curve" smooth="yes"/>
      <point x="73" y="409"/>
      <point x="114" y="502"/>
      <point x="235" y="502" type="curve" smooth="yes"/>
      <point x="266" y="502" type="line"/>
      <point x="298" y="423"/>
      <point x="315" y="349"/>
      <point x="315" y="253" type="curve" smooth="yes"/>
      <point x="315" y="95"/>
      <point x="276" y="15"/>
      <point x="197" y="15" type="curve" smooth="yes"/>
      <point x="117" y="15"/>
      <point x="73" y="97"/>
    </contour>
  </outline>
</glyph>
<glyph name="tau" format="2">
  <advance width="240"/>
  <unicode hex="03C4"/>
  <anchor x="120" y="0" name="bottom"/>
  <anchor x="120" y="527" name="top"/>
  <outline>
    <contour>
      <point x="225" y="527" type="line"/>
      <point x="31" y="527" type="line"/>
      <point x="0" y="517" type="line"/>
      <point x="0" y="502" type="line"/>
      <point x="86" y="502" type="line"/>
      <point x="86" y="140" type="line" smooth="yes"/>
      <point x="86" y="42"/>
      <point x="100" y="-10"/>
      <point x="169" y="-10" type="curve" smooth="yes"/>
      <point x="192" y="-10"/>
      <point x="214" y="-4"/>
      <point x="223" y="1" type="curve"/>
      <point x="223" y="25" type="line"/>
      <point x="209" y="18"/>
      <point x="187" y="14"/>
      <point x="172" y="14" type="curve" smooth="yes"/>
      <point x="125" y="14"/>
      <point x="112" y="50"/>
      <point x="112" y="145" type="curve" smooth="yes"/>
      <point x="112" y="502" type="line"/>
      <point x="225" y="502" type="line"/>
    </contour>
  </outline>
</glyph>
<glyph name="phi" format="2">
  <advance width="491"/>
  <unicode hex="03C6"/>
  <anchor x="246" y="-232" name="bottom"/>
  <anchor x="246" y="527" name="top"/>
  <outline>
    <contour>
      <point x="164" y="520" type="curve"/>
      <point x="145" y="536" type="line"/>
      <point x="81" y="464"/>
      <point x="46" y="387"/>
      <point x="46" y="264" type="curve" smooth="yes"/>
      <point x="46" y="112"/>
      <point x="100" y="-4"/>
      <point x="232" y="-11" type="curve"/>
      <point x="232" y="-232" type="line"/>
      <point x="259" y="-232" type="line"/>
      <point x="259" y="-11" type="line"/>
      <point x="400" y="-1"/>
      <point x="446" y="138"/>
      <point x="446" y="291" type="curve" smooth="yes"/>
      <point x="446" y="434"/>
      <point x="406" y="537"/>
      <point x="321" y="537" type="curve" smooth="yes"/>
      <point x="259" y="537"/>
      <point x="232" y="483"/>
      <point x="232" y="392" type="curve" smooth="yes"/>
      <point x="232" y="14" type="line"/>
      <point x="119" y="18"/>
      <point x="73" y="127"/>
      <point x="73" y="265" type="curve" smooth="yes"/>
      <point x="73" y="377"/>
      <point x="103" y="454"/>
    </contour>
    <contour>
      <point x="321" y="512" type="curve" smooth="yes"/>
      <point x="377" y="512"/>
      <point x="419" y="444"/>
      <point x="419" y="294" type="curve" smooth="yes"/>
      <point x="419" y="121"/>
      <point x="364" y="19"/>
      <point x="258" y="14" type="curve"/>
      <point x="258" y="379" type="line" smooth="yes"/>
      <point x="258" y="455"/>
      <point x="269" y="512"/>
    </contour>
  </outline>
</glyph>
<glyph name="chi" format="2">
  <advance width="307"/>
  <unicode hex="03C7"/>
  <anchor x="154" y="-240" name="bottom"/>
  <anchor x="154" y="527" name="top"/>
  <anchor x="288" y="527" name="topright"/>
  <outline>
    <contour>
      <point x="36" y="535" type="curve" smooth="yes"/>
      <point x="24" y="535"/>
      <point x="10" y="532"/>
      <point x="5" y="529" type="curve"/>
      <point x="5" y="504" type="line"/>
      <point x="11" y="507"/>
      <point x="20" y="510"/>
      <point x="31" y="510" type="curve" smooth="yes"/>
      <point x="58" y="510"/>
      <point x="69" y="493"/>
      <point x="83" y="433" type="curve" smooth="yes"/>
      <point x="147" y="162" type="line"/>
      <point x="32" y="-232" type="line"/>
      <point x="60" y="-232" type="line"/>
      <point x="158" y="116" type="line"/>
      <point x="228" y="-176" type="line" smooth="yes"/>
      <point x="240" y="-228"/>
      <point x="258" y="-240"/>
      <point x="285" y="-240" type="curve" smooth="yes"/>
      <point x="295" y="-240"/>
      <point x="301" y="-238"/>
      <point x="307" y="-235" type="curve"/>
      <point x="307" y="-212" type="line"/>
      <point x="303" y="-214"/>
      <point x="297" y="-216"/>
      <point x="290" y="-216" type="curve" smooth="yes"/>
      <point x="271" y="-216"/>
      <point x="260" y="-203"/>
      <point x="251" y="-164" type="curve" smooth="yes"/>
      <point x="174" y="160" type="line"/>
      <point x="288" y="527" type="line"/>
      <point x="260" y="527" type="line"/>
      <point x="162" y="207" type="line"/>
      <point x="105" y="449" type="line" smooth="yes"/>
      <point x="90" y="513"/>
      <point x="70" y="535"/>
    </contour>
  </outline>
</glyph>
<glyph name="psi" format="2">
  <advance width="443"/>
  <unicode hex="03C8"/>
  <anchor x="221" y="-232" name="bottom"/>
  <anchor x="221" y="760" name="top"/>
  <outline>
    <contour>
      <point x="239" y="760" type="line"/>
      <point x="213" y="760" type="line"/>
      <point x="213" y="18" type="line"/>
      <point x="116" y="23"/>
      <point x="89" y="116"/>
      <point x="89" y="257" type="curve" smooth="yes"/>
      <point x="89" y="527" type="line"/>
      <point x="63" y="527" type="line"/>
      <point x="63" y="249" type="line" smooth="yes"/>
      <point x="63" y="90"/>
      <point x="103" y="-2"/>
      <point x="213" y="-6" type="curve"/>
      <point x="213" y="-232" type="line"/>
      <point x="239" y="-232" type="line"/>
      <point x="239" y="-6" type="line"/>
      <point x="353" y="-2"/>
      <point x="397" y="100"/>
      <point x="397" y="289" type="curve" smooth="yes"/>
      <point x="397" y="387"/>
      <point x="385" y="450"/>
      <point x="364" y="527" type="curve"/>
      <point x="337" y="527" type="line"/>
      <point x="359" y="455"/>
      <point x="371" y="389"/>
      <point x="371" y="291" type="curve" smooth="yes"/>
      <point x="371" y="120"/>
      <point x="335" y="22"/>
      <point x="239" y="18" type="curve"/>
    </contour>
  </outline>
</glyph>
<glyph name="omega" format="2">
  <advance width="442"/>
  <unicode hex="03C9"/>
  <anchor x="221" y="0" name="bottom"/>
  <anchor x="221" y="527" name="top"/>
  <outline>
    <contour>
      <point x="345" y="527" type="curve"/>
      <point x="318" y="527" type="line"/>
      <point x="353" y="432"/>
      <point x="367" y="349"/>
      <point x="367" y="238" type="curve" smooth="yes"/>
      <point x="367" y="98"/>
      <point x="344" y="15"/>
      <point x="292" y="15" type="curve" smooth="yes"/>
      <point x="249" y="15"/>
      <point x="234" y="74"/>
      <point x="234" y="193" type="curve" smooth="yes"/>
      <point x="234" y="335" type="line"/>
      <point x="208" y="335" type="line"/>
      <point x="208" y="193" type="line" smooth="yes"/>
      <point x="208" y="80"/>
      <point x="189" y="15"/>
      <point x="146" y="15" type="curve" smooth="yes"/>
      <point x="97" y="15"/>
      <point x="73" y="102"/>
      <point x="73" y="236" type="curve" smooth="yes"/>
      <point x="73" y="352"/>
      <point x="91" y="431"/>
      <point x="124" y="527" type="curve"/>
      <point x="96" y="527" type="line"/>
      <point x="65" y="435"/>
      <point x="47" y="357"/>
      <point x="47" y="240" type="curve" smooth="yes"/>
      <point x="47" y="79"/>
      <point x="82" y="-10"/>
      <point x="144" y="-10" type="curve" smooth="yes"/>
      <point x="184" y="-10"/>
      <point x="213" y="27"/>
      <point x="219" y="81" type="curve"/>
      <point x="220" y="81" type="line"/>
      <point x="228" y="26"/>
      <point x="251" y="-10"/>
      <point x="293" y="-10" type="curve" smooth="yes"/>
      <point x="364" y="-10"/>
      <point x="395" y="95"/>
      <point x="395" y="240" type="curve" smooth="yes"/>
      <point x="395" y="354"/>
      <point x="376" y="429"/>
    </contour>
  </outline>
</glyph>
<glyph name="KaiSymbol" format="2">
  <advance width="371"/>
  <unicode hex="03CF"/>
  <outline>
    <contour>
      <point x="202" y="-242" type="curve" smooth="yes"/>
      <point x="294" y="-242"/>
      <point x="343" y="-184"/>
      <point x="372" y="0" type="curve"/>
      <point x="180" y="402" type="line"/>
      <point x="360" y="714" type="line"/>
      <point x="330" y="714" type="line"/>
      <point x="156" y="414" type="line" smooth="yes"/>
      <point x="130" y="368"/>
      <point x="110" y="336"/>
      <point x="102" y="318" type="curve"/>
      <point x="102" y="714" type="line"/>
      <point x="76" y="714" type="line"/>
      <point x="76" y="0" type="line"/>
      <point x="102" y="0" type="line"/>
      <point x="102" y="282" type="line"/>
      <point x="161" y="376" type="line"/>
      <point x="345" y="-8" type="line"/>
      <point x="323" y="-152"/>
      <point x="281" y="-217"/>
      <point x="202" y="-217" type="curve" smooth="yes"/>
      <point x="151" y="-217"/>
      <point x="116" y="-195"/>
      <point x="81" y="-167" type="curve"/>
      <point x="81" y="-200" type="line"/>
      <point x="103" y="-215"/>
      <point x="140" y="-242"/>
    </contour>
  </outline>
</glyph>
<glyph name="uni03D2" format="2">
  <advance width="299"/>
  <unicode hex="03D2"/>
  <anchor x="150" y="714" name="top"/>
  <outline>
    <contour>
      <point x="147" y="321" type="curve"/>
      <point x="27" y="714" type="line"/>
      <point x="0" y="714" type="line"/>
      <point x="133" y="281" type="line"/>
      <point x="133" y="0" type="line"/>
      <point x="160" y="0" type="line"/>
      <point x="160" y="280" type="line"/>
      <point x="192" y="413"/>
      <point x="225" y="551"/>
      <point x="242" y="615" type="curve" smooth="yes"/>
      <point x="257" y="671"/>
      <point x="268" y="697"/>
      <point x="290" y="697" type="curve" smooth="yes"/>
      <point x="294" y="697"/>
      <point x="299" y="697"/>
      <point x="304" y="695" type="curve"/>
      <point x="304" y="717" type="line"/>
      <point x="299" y="719"/>
      <point x="294" y="720"/>
      <point x="288" y="720" type="curve" smooth="yes"/>
      <point x="243" y="720"/>
      <point x="229" y="659"/>
      <point x="211" y="590" type="curve" smooth="yes"/>
      <point x="190" y="510"/>
      <point x="188" y="492"/>
    </contour>
  </outline>
</glyph>
<glyph name="uni03D7" format="2">
  <advance width="409"/>
  <unicode hex="03D7"/>
  <outline>
    <contour>
      <point x="325" y="-242" type="curve" smooth="yes"/>
      <point x="366" y="-242"/>
      <point x="393" y="-217"/>
      <point x="393" y="-145" type="curve" smooth="yes"/>
      <point x="393" y="33" type="line"/>
      <point x="383" y="27"/>
      <point x="371" y="26"/>
      <point x="362" y="26" type="curve" smooth="yes"/>
      <point x="327" y="26"/>
      <point x="298" y="58"/>
      <point x="298" y="185" type="curve" smooth="yes"/>
      <point x="298" y="328"/>
      <point x="333" y="456"/>
      <point x="358" y="527" type="curve"/>
      <point x="325" y="527" type="line"/>
      <point x="98" y="102" type="line"/>
      <point x="118" y="167"/>
      <point x="131" y="258"/>
      <point x="131" y="342" type="curve" smooth="yes"/>
      <point x="131" y="479"/>
      <point x="100" y="537"/>
      <point x="42" y="537" type="curve" smooth="yes"/>
      <point x="31" y="537"/>
      <point x="16" y="535"/>
      <point x="5" y="527" type="curve"/>
      <point x="11" y="504" type="line"/>
      <point x="21" y="511"/>
      <point x="31" y="513"/>
      <point x="40" y="513" type="curve" smooth="yes"/>
      <point x="83" y="513"/>
      <point x="104" y="461"/>
      <point x="104" y="344" type="curve" smooth="yes"/>
      <point x="104" y="207"/>
      <point x="76" y="84"/>
      <point x="38" y="0" type="curve"/>
      <point x="71" y="0" type="line"/>
      <point x="306" y="441" type="line"/>
      <point x="289" y="370"/>
      <point x="270" y="277"/>
      <point x="270" y="179" type="curve" smooth="yes"/>
      <point x="270" y="52"/>
      <point x="299" y="0"/>
      <point x="366" y="0" type="curve"/>
      <point x="366" y="-142" type="line" smooth="yes"/>
      <point x="366" y="-193"/>
      <point x="354" y="-217"/>
      <point x="323" y="-217" type="curve" smooth="yes"/>
      <point x="312" y="-217"/>
      <point x="303" y="-215"/>
      <point x="292" y="-210" type="curve"/>
      <point x="292" y="-236" type="line"/>
      <point x="300" y="-239"/>
      <point x="310" y="-242"/>
    </contour>
  </outline>
</glyph>
<glyph name="uni03DB" format="2">
  <advance width="269"/>
  <unicode hex="03DB"/>
  <anchor x="135" y="-220" name="bottom"/>
  <anchor x="135" y="527" name="top"/>
  <outline>
    <contour>
      <point x="129" y="-220" type="curve" smooth="yes"/>
      <point x="209" y="-220"/>
      <point x="254" y="-180"/>
      <point x="254" y="-98" type="curve" smooth="yes"/>
      <point x="254" y="-32"/>
      <point x="225" y="-10"/>
      <point x="157" y="38" type="curve" smooth="yes"/>
      <point x="96" y="82"/>
      <point x="73" y="140"/>
      <point x="73" y="274" type="curve" smooth="yes"/>
      <point x="73" y="449"/>
      <point x="113" y="512"/>
      <point x="195" y="512" type="curve" smooth="yes"/>
      <point x="219" y="512"/>
      <point x="238" y="506"/>
      <point x="251" y="500" type="curve"/>
      <point x="259" y="524" type="line"/>
      <point x="242" y="533"/>
      <point x="218" y="537"/>
      <point x="195" y="537" type="curve" smooth="yes"/>
      <point x="89" y="537"/>
      <point x="46" y="449"/>
      <point x="46" y="274" type="curve" smooth="yes"/>
      <point x="46" y="115"/>
      <point x="80" y="59"/>
      <point x="148" y="13" type="curve" smooth="yes"/>
      <point x="180" y="-9"/>
      <point x="227" y="-32"/>
      <point x="227" y="-101" type="curve" smooth="yes"/>
      <point x="227" y="-159"/>
      <point x="193" y="-193"/>
      <point x="128" y="-193" type="curve" smooth="yes"/>
      <point x="107" y="-193"/>
      <point x="85" y="-189"/>
      <point x="65" y="-182" type="curve"/>
      <point x="65" y="-210" type="line"/>
      <point x="82" y="-216"/>
      <point x="104" y="-220"/>
    </contour>
  </outline>
</glyph>
<glyph name="uni03DD" format="2">
  <advance width="351"/>
  <unicode hex="03DD"/>
  <anchor x="176" y="-232" name="bottom"/>
  <anchor x="176" y="527" name="top"/>
  <outline>
    <contour>
      <point x="95" y="-232" type="line"/>
      <point x="95" y="142" type="line"/>
      <point x="280" y="142" type="line"/>
      <point x="280" y="0" type="line"/>
      <point x="307" y="0" type="line"/>
      <point x="307" y="167" type="line"/>
      <point x="95" y="167" type="line"/>
      <point x="95" y="502" type="line"/>
      <point x="318" y="502" type="line"/>
      <point x="318" y="527" type="line"/>
      <point x="69" y="527" type="line"/>
      <point x="69" y="-232" type="line"/>
    </contour>
  </outline>
</glyph>
<glyph name="uni03F1" format="2">
  <advance width="390"/>
  <unicode hex="03F1"/>
  <anchor x="195" y="-232" name="bottom"/>
  <anchor x="195" y="527" name="top"/>
  <outline>
    <contour>
      <point x="202" y="537" type="curve" smooth="yes"/>
      <point x="99" y="537"/>
      <point x="50" y="425"/>
      <point x="50" y="143" type="curve" smooth="yes"/>
      <point x="50" y="-68"/>
      <point x="78" y="-178"/>
      <point x="219" y="-182" type="curve" smooth="yes"/>
      <point x="258" y="-183"/>
      <point x="270" y="-184"/>
      <point x="270" y="-205" type="curve" smooth="yes"/>
      <point x="270" y="-214"/>
      <point x="268" y="-224"/>
      <point x="266" y="-232" type="curve"/>
      <point x="289" y="-232" type="line"/>
      <point x="292" y="-222"/>
      <point x="294" y="-212"/>
      <point x="294" y="-201" type="curve" smooth="yes"/>
      <point x="294" y="-158"/>
      <point x="265" y="-162"/>
      <point x="224" y="-160" type="curve" smooth="yes"/>
      <point x="134" y="-156"/>
      <point x="76" y="-107"/>
      <point x="76" y="87" type="curve"/>
      <point x="80" y="87" type="line"/>
      <point x="106" y="24"/>
      <point x="148" y="-11"/>
      <point x="201" y="-11" type="curve" smooth="yes"/>
      <point x="293" y="-11"/>
      <point x="345" y="88"/>
      <point x="345" y="268" type="curve" smooth="yes"/>
      <point x="345" y="440"/>
      <point x="297" y="537"/>
    </contour>
    <contour>
      <point x="202" y="512" type="curve"/>
      <point x="273" y="512"/>
      <point x="319" y="429"/>
      <point x="319" y="264" type="curve" smooth="yes"/>
      <point x="319" y="102"/>
      <point x="275" y="14"/>
      <point x="200" y="14" type="curve" smooth="yes"/>
      <point x="135" y="14"/>
      <point x="95" y="79"/>
      <point x="77" y="149" type="curve"/>
      <point x="77" y="163"/>
      <point x="77" y="176"/>
      <point x="77" y="189" type="curve" smooth="yes"/>
      <point x="77" y="377"/>
      <point x="114" y="512"/>
    </contour>
  </outline>
</glyph>
<glyph name="uni03FC" format="2">
  <advance width="403"/>
  <unicode hex="03FC"/>
  <anchor x="201" y="-232" name="bottom"/>
  <anchor x="201" y="527" name="top"/>
  <outline>
    <contour>
      <point x="65" y="-232" type="line"/>
      <point x="91" y="-232" type="line"/>
      <point x="91" y="-127" type="line"/>
      <point x="211" y="-127" type="line"/>
      <point x="211" y="-102" type="line"/>
      <point x="91" y="-102" type="line"/>
      <point x="91" y="-33"/>
      <point x="91" y="-5"/>
      <point x="89" y="39" type="curve"/>
      <point x="91" y="39" type="line"/>
      <point x="119" y="10"/>
      <point x="160" y="-10"/>
      <point x="206" y="-10" type="curve" smooth="yes"/>
      <point x="311" y="-10"/>
      <point x="359" y="93"/>
      <point x="359" y="274" type="curve" smooth="yes"/>
      <point x="359" y="451"/>
      <point x="312" y="537"/>
      <point x="212" y="537" type="curve" smooth="yes"/>
      <point x="110" y="537"/>
      <point x="65" y="448"/>
      <point x="65" y="284" type="curve" smooth="yes"/>
      <point x="65" y="-102" type="line"/>
      <point x="5" y="-102" type="line"/>
      <point x="5" y="-127" type="line"/>
      <point x="65" y="-127" type="line"/>
    </contour>
    <contour>
      <point x="205" y="15" type="curve" smooth="yes"/>
      <point x="162" y="15"/>
      <point x="114" y="40"/>
      <point x="91" y="67" type="curve"/>
      <point x="91" y="276" type="line" smooth="yes"/>
      <point x="91" y="427"/>
      <point x="125" y="512"/>
      <point x="211" y="512" type="curve" smooth="yes"/>
      <point x="296" y="512"/>
      <point x="332" y="427"/>
      <point x="332" y="274" type="curve" smooth="yes"/>
      <point x="332" y="105"/>
      <point x="288" y="15"/>
    </contour>
  </outline>
</glyph>
<glyph name="uni0488" format="2">
  <advance width="916"/>
  <unicode hex="0488"/>
  <outline>
    <contour>
      <point x="617" y="463" type="curve"/>
      <point x="642" y="463" type="line"/>
      <point x="648" y="507"/>
      <point x="672" y="527"/>
      <point x="708" y="527" type="curve" smooth="yes"/>
      <point x="747" y="527"/>
      <point x="773" y="504"/>
      <point x="778" y="463" type="curve"/>
      <point x="803" y="463" type="line"/>
      <point x="798" y="523"/>
      <point x="764" y="554"/>
      <point x="708" y="554" type="curve" smooth="yes"/>
      <point x="653" y="554"/>
      <point x="620" y="523"/>
    </contour>
    <contour>
      <point x="107" y="-20" type="curve"/>
      <point x="132" y="-20" type="line"/>
      <point x="138" y="24"/>
      <point x="162" y="44"/>
      <point x="198" y="44" type="curve" smooth="yes"/>
      <point x="237" y="44"/>
      <point x="263" y="21"/>
      <point x="268" y="-20" type="curve"/>
      <point x="293" y="-20" type="line"/>
      <point x="288" y="40"/>
      <point x="254" y="71"/>
      <point x="198" y="71" type="curve" smooth="yes"/>
      <point x="143" y="71"/>
      <point x="110" y="40"/>
    </contour>
    <contour>
      <point x="360" y="-156" type="curve"/>
      <point x="385" y="-156" type="line"/>
      <point x="391" y="-112"/>
      <point x="416" y="-92"/>
      <point x="451" y="-92" type="curve" smooth="yes"/>
      <point x="490" y="-92"/>
      <point x="516" y="-115"/>
      <point x="521" y="-156" type="curve"/>
      <point x="546" y="-156" type="line"/>
      <point x="541" y="-96"/>
      <point x="507" y="-65"/>
      <point x="451" y="-65" type="curve" smooth="yes"/>
      <point x="396" y="-65"/>
      <point x="363" y="-96"/>
    </contour>
    <contour>
      <point x="19" y="225" type="curve"/>
      <point x="44" y="225" type="line"/>
      <point x="50" y="269"/>
      <point x="74" y="289"/>
      <point x="110" y="289" type="curve" smooth="yes"/>
      <point x="149" y="289"/>
      <point x="175" y="266"/>
      <point x="180" y="225" type="curve"/>
      <point x="205" y="225" type="line"/>
      <point x="200" y="285"/>
      <point x="166" y="316"/>
      <point x="110" y="316" type="curve" smooth="yes"/>
      <point x="55" y="316"/>
      <point x="22" y="285"/>
    </contour>
    <contour>
      <point x="107" y="463" type="curve"/>
      <point x="132" y="463" type="line"/>
      <point x="138" y="507"/>
      <point x="162" y="527"/>
      <point x="198" y="527" type="curve" smooth="yes"/>
      <point x="237" y="527"/>
      <point x="263" y="504"/>
      <point x="268" y="463" type="curve"/>
      <point x="293" y="463" type="line"/>
      <point x="288" y="523"/>
      <point x="254" y="554"/>
      <point x="198" y="554" type="curve" smooth="yes"/>
      <point x="143" y="554"/>
      <point x="110" y="523"/>
    </contour>
    <contour>
      <point x="617" y="-20" type="curve"/>
      <point x="642" y="-20" type="line"/>
      <point x="648" y="24"/>
      <point x="672" y="44"/>
      <point x="708" y="44" type="curve" smooth="yes"/>
      <point x="747" y="44"/>
      <point x="773" y="21"/>
      <point x="778" y="-20" type="curve"/>
      <point x="803" y="-20" type="line"/>
      <point x="798" y="40"/>
      <point x="764" y="71"/>
      <point x="708" y="71" type="curve" smooth="yes"/>
      <point x="653" y="71"/>
      <point x="620" y="40"/>
    </contour>
    <contour>
      <point x="713" y="225" type="curve"/>
      <point x="737" y="225" type="line"/>
      <point x="744" y="269"/>
      <point x="768" y="289"/>
      <point x="804" y="289" type="curve" smooth="yes"/>
      <point x="843" y="289"/>
      <point x="869" y="266"/>
      <point x="874" y="225" type="curve"/>
      <point x="898" y="225" type="line"/>
      <point x="894" y="285"/>
      <point x="860" y="316"/>
      <point x="804" y="316" type="curve" smooth="yes"/>
      <point x="749" y="316"/>
      <point x="716" y="285"/>
    </contour>
    <contour>
      <point x="360" y="598" type="curve"/>
      <point x="385" y="598" type="line"/>
      <point x="391" y="642"/>
      <point x="416" y="662"/>
      <point x="451" y="662" type="curve" smooth="yes"/>
      <point x="490" y="662"/>
      <point x="516" y="639"/>
      <point x="521" y="598" type="curve"/>
      <point x="546" y="598" type="line"/>
      <point x="541" y="658"/>
      <point x="507" y="689"/>
      <point x="451" y="689" type="curve" smooth="yes"/>
      <point x="396" y="689"/>
      <point x="363" y="658"/>
    </contour>
  </outline>
</glyph>
<glyph name="uni0489" format="2">
  <advance width="938"/>
  <unicode hex="0489"/>
  <outline>
    <contour>
      <point x="804" y="566" type="line"/>
      <point x="740" y="539"/>
      <point x="699" y="515"/>
      <point x="656" y="487" type="curve"/>
      <point x="654" y="478" type="line"/>
      <point x="677" y="454" type="line"/>
      <point x="705" y="474"/>
      <point x="751" y="506"/>
      <point x="818" y="550" type="curve"/>
    </contour>
    <contour>
      <point x="262" y="61" type="line"/>
      <point x="234" y="40"/>
      <point x="187" y="8"/>
      <point x="121" y="-35" type="curve"/>
      <point x="137" y="-52" type="line"/>
      <point x="170" y="-39"/>
      <point x="252" y="5"/>
      <point x="286" y="24" type="curve"/>
      <point x="288" y="32" type="line"/>
    </contour>
    <contour>
      <point x="19" y="315" type="curve"/>
      <point x="19" y="292" type="line"/>
      <point x="70" y="267"/>
      <point x="123" y="251"/>
      <point x="178" y="237" type="curve"/>
      <point x="185" y="241" type="line"/>
      <point x="185" y="279" type="line"/>
      <point x="148" y="285"/>
      <point x="93" y="296"/>
    </contour>
    <contour>
      <point x="498" y="-17" type="line"/>
      <point x="460" y="-17" type="line"/>
      <point x="454" y="-55"/>
      <point x="443" y="-112"/>
      <point x="426" y="-188" type="curve"/>
      <point x="450" y="-188" type="line"/>
      <point x="473" y="-128"/>
      <point x="491" y="-74"/>
      <point x="503" y="-24" type="curve"/>
    </contour>
    <contour>
      <point x="689" y="71" type="line"/>
      <point x="663" y="49" type="line"/>
      <point x="686" y="16"/>
      <point x="717" y="-32"/>
      <point x="756" y="-97" type="curve"/>
      <point x="773" y="-84" type="line"/>
      <point x="745" y="-16"/>
      <point x="723" y="26"/>
      <point x="698" y="68" type="curve"/>
    </contour>
    <contour>
      <point x="180" y="610" type="curve"/>
      <point x="163" y="595" type="line"/>
      <point x="187" y="532"/>
      <point x="215" y="486"/>
      <point x="239" y="443" type="curve"/>
      <point x="247" y="441" type="line"/>
      <point x="273" y="464" type="line"/>
      <point x="255" y="489"/>
      <point x="224" y="538"/>
    </contour>
    <contour>
      <point x="760" y="301" type="curve"/>
      <point x="754" y="296" type="line"/>
      <point x="754" y="260" type="line"/>
      <point x="790" y="254"/>
      <point x="846" y="243"/>
      <point x="919" y="224" type="curve"/>
      <point x="919" y="250" type="line"/>
      <point x="886" y="265"/>
      <point x="804" y="290"/>
    </contour>
    <contour>
      <point x="514" y="728" type="curve"/>
      <point x="491" y="728" type="line"/>
      <point x="466" y="664"/>
      <point x="454" y="622"/>
      <point x="441" y="564" type="curve"/>
      <point x="446" y="557" type="line"/>
      <point x="481" y="557" type="line"/>
      <point x="486" y="595"/>
      <point x="497" y="652"/>
    </contour>
  </outline>
</glyph>
<glyph name="uni049D" format="2">
  <advance width="296"/>
  <unicode hex="049D"/>
  <anchor x="148" y="0" name="bottom"/>
  <anchor x="148" y="527" name="top"/>
  <outline>
    <contour>
      <point x="178" y="500" type="line"/>
      <point x="152" y="500" type="line"/>
      <point x="152" y="45" type="line"/>
      <point x="178" y="45" type="line"/>
    </contour>
    <component base="afii10076"/>
  </outline>
</glyph>
<glyph name="uni049E" format="2">
  <advance width="354"/>
  <unicode hex="049E"/>
  <anchor x="181" y="0" name="bottom"/>
  <anchor x="181" y="714" name="top"/>
  <outline>
    <contour>
      <point x="13" y="589" type="line"/>
      <point x="209" y="589" type="line"/>
      <point x="209" y="614" type="line"/>
      <point x="13" y="614" type="line"/>
    </contour>
    <component base="afii10028"/>
  </outline>
</glyph>
<glyph name="uni052A" format="2">
  <advance width="827"/>
  <unicode hex="052A"/>
  <anchor x="419" y="-173" name="bottom"/>
  <anchor x="419" y="714" name="top"/>
  <outline>
    <contour>
      <point x="321" y="376" type="line"/>
      <point x="321" y="351" type="line"/>
      <point x="561" y="351" type="line"/>
      <point x="561" y="376" type="line"/>
    </contour>
    <component base="afii10021"/>
    <component base="afii10028" xOffset="474"/>
  </outline>
</glyph>
<glyph name="uni052B" format="2">
  <advance width="644"/>
  <unicode hex="052B"/>
  <anchor x="324" y="-173" name="bottom"/>
  <anchor x="324" y="527" name="top"/>
  <outline>
    <contour>
      <point x="253" y="296" type="line"/>
      <point x="253" y="271" type="line"/>
      <point x="446" y="271" type="line"/>
      <point x="446" y="296" type="line"/>
    </contour>
    <component base="afii10069"/>
    <component base="afii10076" xOffset="351"/>
  </outline>
</glyph>
<glyph name="uni1ABA" format="2">
  <unicode hex="1ABA"/>
  <anchor x="-13" y="90" name="_bottom"/>
  <anchor x="-13" y="-218" name="bottom"/>
  <outline>
    <contour>
      <point x="22" y="40" type="line"/>
      <point x="-63" y="-183" type="line"/>
      <point x="-36" y="-183" type="line"/>
      <point x="49" y="40" type="line"/>
    </contour>
    <contour>
      <point x="-75" y="-182" type="curve" smooth="yes"/>
      <point x="-75" y="-203"/>
      <point x="-70" y="-218"/>
      <point x="-50" y="-218" type="curve" smooth="yes"/>
      <point x="-33" y="-218"/>
      <point x="-25" y="-205"/>
      <point x="-25" y="-182" type="curve" smooth="yes"/>
      <point x="-25" y="-159"/>
      <point x="-32" y="-147"/>
      <point x="-50" y="-147" type="curve" smooth="yes"/>
      <point x="-70" y="-147"/>
      <point x="-75" y="-163"/>
    </contour>
  </outline>
</glyph>
<glyph name="uni1D24" format="2">
  <advance width="335"/>
  <unicode hex="1D24"/>
  <anchor x="171" y="0" name="bottom"/>
  <anchor x="172" y="760" name="top"/>
  <outline>
    <contour>
      <point x="170" y="-14" type="curve" smooth="yes"/>
      <point x="205" y="-14"/>
      <point x="243" y="-2"/>
      <point x="271" y="17" type="curve"/>
      <point x="259" y="38" type="line"/>
      <point x="230" y="19"/>
      <point x="201" y="10"/>
      <point x="172" y="10" type="curve" smooth="yes"/>
      <point x="102" y="10"/>
      <point x="62" y="52"/>
      <point x="62" y="125" type="curve" smooth="yes"/>
      <point x="62" y="199"/>
      <point x="103" y="272"/>
      <point x="182" y="340" type="curve"/>
      <point x="182" y="401" type="line"/>
      <point x="257" y="464"/>
      <point x="302" y="550"/>
      <point x="302" y="629" type="curve" smooth="yes"/>
      <point x="302" y="713"/>
      <point x="251" y="765"/>
      <point x="167" y="765" type="curve" smooth="yes"/>
      <point x="132" y="765"/>
      <point x="94" y="753"/>
      <point x="66" y="734" type="curve"/>
      <point x="78" y="713" type="line"/>
      <point x="107" y="732"/>
      <point x="136" y="741"/>
      <point x="165" y="741" type="curve" smooth="yes"/>
      <point x="235" y="741"/>
      <point x="275" y="699"/>
      <point x="275" y="626" type="curve" smooth="yes"/>
      <point x="275" y="552"/>
      <point x="234" y="479"/>
      <point x="155" y="411" type="curve"/>
      <point x="155" y="350" type="line"/>
      <point x="80" y="287"/>
      <point x="35" y="201"/>
      <point x="35" y="122" type="curve" smooth="yes"/>
      <point x="35" y="38"/>
      <point x="86" y="-14"/>
    </contour>
  </outline>
</glyph>
<glyph name="uni1D7A" format="2">
  <advance width="602"/>
  <unicode hex="1D7A"/>
  <anchor x="130" y="0" name="bottom_1"/>
  <anchor x="393" y="0" name="bottom_2"/>
  <anchor x="102" y="264" name="center_1"/>
  <anchor x="393" y="264" name="center_2"/>
  <anchor x="83" y="656" name="top_1"/>
  <anchor x="276" y="760" name="top_2"/>
  <anchor x="184" y="656" name="topright_1"/>
  <anchor x="511" y="760" name="topright_2"/>
  <outline>
    <contour>
      <point x="29" y="-75" type="line"/>
      <point x="57" y="-75" type="line"/>
      <point x="467" y="760" type="line"/>
      <point x="440" y="760" type="line"/>
    </contour>
    <component base="t"/>
    <component base="h" xOffset="194"/>
  </outline>
</glyph>
<glyph name="uni1D7D" format="2">
  <advance width="423"/>
  <unicode hex="1D7D"/>
  <anchor x="82" y="-232" name="bottom"/>
  <anchor x="207" y="527" name="top"/>
  <anchor x="382" y="527" name="topright"/>
  <outline>
    <contour>
      <point x="415" y="278" type="line"/>
      <point x="17" y="278" type="line"/>
      <point x="17" y="253" type="line"/>
      <point x="415" y="253" type="line"/>
    </contour>
    <component base="p"/>
  </outline>
</glyph>
<glyph name="uni1D7F" format="2">
  <advance width="397"/>
  <unicode hex="1D7F"/>
  <anchor x="199" y="0" name="bottom"/>
  <anchor x="199" y="527" name="top"/>
  <outline>
    <contour>
      <point x="399" y="278" type="line"/>
      <point x="0" y="278" type="line"/>
      <point x="0" y="253" type="line"/>
      <point x="399" y="253" type="line"/>
    </contour>
    <component base="uni028A"/>
  </outline>
</glyph>
<glyph name="uni1D81" format="2">
  <advance width="424"/>
  <unicode hex="1D81"/>
  <anchor x="197" y="0" name="bottom"/>
  <anchor x="207" y="264" name="center"/>
  <anchor x="187" y="760" name="top"/>
  <anchor x="393" y="760" name="topright"/>
  <outline>
    <contour>
      <point x="306" y="-161" type="curve" smooth="yes"/>
      <point x="336" y="-161"/>
      <point x="369" y="-150"/>
      <point x="369" y="-74" type="curve" smooth="yes"/>
      <point x="369" y="25" type="line"/>
      <point x="343" y="25" type="line"/>
      <point x="343" y="0" type="line"/>
      <point x="343" y="-72" type="line" smooth="yes"/>
      <point x="343" y="-123"/>
      <point x="330" y="-136"/>
      <point x="305" y="-136" type="curve" smooth="yes"/>
      <point x="294" y="-136"/>
      <point x="285" y="-134"/>
      <point x="271" y="-129" type="curve"/>
      <point x="271" y="-155" type="line"/>
      <point x="285" y="-159"/>
      <point x="295" y="-161"/>
    </contour>
    <component base="d"/>
  </outline>
</glyph>
<glyph name="uni1DFC" format="2">
  <unicode hex="1DFC"/>
  <outline>
    <contour>
      <point x="260" y="-217" type="line"/>
      <point x="250" y="-96"/>
      <point x="126" y="-60"/>
      <point x="0" y="-60" type="curve" smooth="yes"/>
      <point x="-135" y="-60"/>
      <point x="-245" y="-95"/>
      <point x="-258" y="-217" type="curve"/>
      <point x="-234" y="-217" type="line"/>
      <point x="-219" y="-113"/>
      <point x="-134" y="-85"/>
      <point x="0" y="-85" type="curve" smooth="yes"/>
      <point x="126" y="-85"/>
      <point x="222" y="-112"/>
      <point x="236" y="-217" type="curve"/>
    </contour>
  </outline>
</glyph>
<glyph name="ll-middleWelsh" format="2">
  <advance width="336"/>
  <unicode hex="1EFB"/>
  <anchor x="168" y="0" name="bottom"/>
  <anchor x="168" y="760" name="top"/>
  <anchor x="82" y="264" name="center_1"/>
  <anchor x="241" y="264" name="center_2"/>
  <anchor x="143" y="760" name="topright_1"/>
  <anchor x="302" y="760" name="topright_2"/>
  <outline>
    <contour>
      <point x="4" y="620" type="line"/>
      <point x="332" y="620" type="line"/>
      <point x="332" y="645" type="line"/>
      <point x="4" y="645" type="line"/>
    </contour>
    <component base="l"/>
    <component base="l" xOffset="159"/>
  </outline>
</glyph>
<glyph name="uni1FBD" format="2">
  <advance width="216"/>
  <unicode hex="1FBD"/>
  <anchor x="114" y="527" name="_top"/>
  <outline>
    <contour>
      <point x="82" y="600" type="curve"/>
      <point x="82" y="577" type="line"/>
      <point x="118" y="581"/>
      <point x="146" y="626"/>
      <point x="146" y="682" type="curve" smooth="yes"/>
      <point x="146" y="717"/>
      <point x="129" y="724"/>
      <point x="115" y="724" type="curve" smooth="yes"/>
      <point x="98" y="724"/>
      <point x="87" y="711"/>
      <point x="87" y="689" type="curve" smooth="yes"/>
      <point x="87" y="662"/>
      <point x="104" y="653"/>
      <point x="119" y="653" type="curve"/>
      <point x="117" y="627"/>
      <point x="101" y="603"/>
    </contour>
  </outline>
</glyph>
<glyph name="uni1FBE" format="2">
  <advance width="564"/>
  <unicode hex="1FBE"/>
  <outline>
    <contour>
      <point x="267" y="-64" type="line"/>
      <point x="243" y="-64" type="line"/>
      <point x="243" y="-145" type="line" smooth="yes"/>
      <point x="243" y="-195"/>
      <point x="268" y="-213"/>
      <point x="303" y="-213" type="curve" smooth="yes"/>
      <point x="316" y="-213"/>
      <point x="327" y="-210"/>
      <point x="337" y="-206" type="curve"/>
      <point x="337" y="-183" type="line"/>
      <point x="328" y="-186"/>
      <point x="317" y="-189"/>
      <point x="304" y="-189" type="curve" smooth="yes"/>
      <point x="280" y="-189"/>
      <point x="267" y="-178"/>
      <point x="267" y="-140" type="curve" smooth="yes"/>
    </contour>
  </outline>
</glyph>
<glyph name="uni1FC1" format="2">
  <advance width="483"/>
  <unicode hex="1FC1"/>
  <anchor x="242" y="527" name="_top"/>
  <outline>
    <contour>
      <point x="116" y="742" type="curve"/>
      <point x="139" y="742" type="line"/>
      <point x="142" y="787"/>
      <point x="161" y="807"/>
      <point x="183" y="807" type="curve" smooth="yes"/>
      <point x="224" y="807"/>
      <point x="247" y="742"/>
      <point x="300" y="742" type="curve" smooth="yes"/>
      <point x="336" y="742"/>
      <point x="367" y="770"/>
      <point x="368" y="831" type="curve"/>
      <point x="346" y="831" type="line"/>
      <point x="343" y="789"/>
      <point x="326" y="765"/>
      <point x="300" y="765" type="curve" smooth="yes"/>
      <point x="258" y="765"/>
      <point x="236" y="830"/>
      <point x="183" y="830" type="curve" smooth="yes"/>
      <point x="149" y="830"/>
      <point x="121" y="805"/>
    </contour>
    <contour>
      <point x="174" y="626" type="curve" smooth="yes"/>
      <point x="188" y="626"/>
      <point x="198" y="639"/>
      <point x="198" y="658" type="curve" smooth="yes"/>
      <point x="198" y="677"/>
      <point x="188" y="691"/>
      <point x="174" y="691" type="curve" smooth="yes"/>
      <point x="159" y="691"/>
      <point x="150" y="675"/>
      <point x="150" y="658" type="curve" smooth="yes"/>
      <point x="150" y="641"/>
      <point x="159" y="626"/>
    </contour>
    <contour>
      <point x="311" y="626" type="curve" smooth="yes"/>
      <point x="326" y="626"/>
      <point x="335" y="640"/>
      <point x="335" y="659" type="curve" smooth="yes"/>
      <point x="335" y="678"/>
      <point x="325" y="691"/>
      <point x="311" y="691" type="curve" smooth="yes"/>
      <point x="296" y="691"/>
      <point x="286" y="676"/>
      <point x="286" y="659" type="curve" smooth="yes"/>
      <point x="286" y="641"/>
      <point x="296" y="626"/>
    </contour>
  </outline>
</glyph>
<glyph name="uni1FCD" format="2">
  <advance width="529"/>
  <unicode hex="1FCD"/>
  <outline>
    <contour>
      <point x="343" y="573" type="curve"/>
      <point x="359" y="573" type="line"/>
      <point x="359" y="585" type="line"/>
      <point x="336" y="634"/>
      <point x="324" y="669"/>
      <point x="311" y="717" type="curve"/>
      <point x="279" y="717" type="line"/>
      <point x="279" y="710" type="line"/>
      <point x="293" y="664"/>
      <point x="321" y="608"/>
    </contour>
    <contour>
      <point x="192" y="596" type="curve"/>
      <point x="192" y="573" type="line"/>
      <point x="228" y="577"/>
      <point x="255" y="622"/>
      <point x="255" y="678" type="curve" smooth="yes"/>
      <point x="255" y="713"/>
      <point x="239" y="720"/>
      <point x="225" y="720" type="curve" smooth="yes"/>
      <point x="207" y="720"/>
      <point x="197" y="707"/>
      <point x="197" y="685" type="curve" smooth="yes"/>
      <point x="197" y="658"/>
      <point x="214" y="649"/>
      <point x="229" y="649" type="curve"/>
      <point x="227" y="623"/>
      <point x="210" y="599"/>
    </contour>
  </outline>
</glyph>
<glyph name="uni1FCE" format="2">
  <advance width="520"/>
  <unicode hex="1FCE"/>
  <anchor x="271" y="522" name="_top"/>
  <anchor x="271" y="720" name="top"/>
  <outline>
    <contour>
      <point x="270" y="572" type="line"/>
      <point x="286" y="572" type="line"/>
      <point x="308" y="607"/>
      <point x="336" y="663"/>
      <point x="350" y="709" type="curve"/>
      <point x="350" y="716" type="line"/>
      <point x="318" y="716" type="line"/>
      <point x="306" y="668"/>
      <point x="293" y="633"/>
      <point x="270" y="584" type="curve"/>
    </contour>
    <contour>
      <point x="192" y="573" type="line"/>
      <point x="228" y="577"/>
      <point x="255" y="622"/>
      <point x="255" y="678" type="curve" smooth="yes"/>
      <point x="255" y="713"/>
      <point x="239" y="720"/>
      <point x="225" y="720" type="curve" smooth="yes"/>
      <point x="207" y="720"/>
      <point x="197" y="707"/>
      <point x="197" y="685" type="curve" smooth="yes"/>
      <point x="197" y="658"/>
      <point x="214" y="649"/>
      <point x="229" y="649" type="curve"/>
      <point x="227" y="623"/>
      <point x="210" y="599"/>
      <point x="192" y="596" type="curve"/>
    </contour>
  </outline>
</glyph>
<glyph name="uni1FCF" format="2">
  <advance width="455"/>
  <unicode hex="1FCF"/>
  <outline>
    <contour>
      <point x="91" y="745" type="curve"/>
      <point x="114" y="745" type="line"/>
      <point x="117" y="790"/>
      <point x="136" y="810"/>
      <point x="158" y="810" type="curve" smooth="yes"/>
      <point x="199" y="810"/>
      <point x="222" y="745"/>
      <point x="276" y="745" type="curve" smooth="yes"/>
      <point x="312" y="745"/>
      <point x="343" y="773"/>
      <point x="344" y="834" type="curve"/>
      <point x="322" y="834" type="line"/>
      <point x="319" y="792"/>
      <point x="302" y="768"/>
      <point x="276" y="768" type="curve" smooth="yes"/>
      <point x="233" y="768"/>
      <point x="211" y="833"/>
      <point x="158" y="833" type="curve" smooth="yes"/>
      <point x="124" y="833"/>
      <point x="96" y="808"/>
    </contour>
    <contour>
      <point x="187" y="600" type="curve"/>
      <point x="187" y="577" type="line"/>
      <point x="223" y="581"/>
      <point x="250" y="626"/>
      <point x="250" y="682" type="curve" smooth="yes"/>
      <point x="250" y="717"/>
      <point x="234" y="724"/>
      <point x="220" y="724" type="curve" smooth="yes"/>
      <point x="202" y="724"/>
      <point x="192" y="711"/>
      <point x="192" y="689" type="curve" smooth="yes"/>
      <point x="192" y="662"/>
      <point x="209" y="653"/>
      <point x="224" y="653" type="curve"/>
      <point x="222" y="627"/>
      <point x="205" y="603"/>
    </contour>
  </outline>
</glyph>
<glyph name="uni1FDD" format="2">
  <advance width="523"/>
  <unicode hex="1FDD"/>
  <outline>
    <contour>
      <point x="327" y="573" type="curve"/>
      <point x="343" y="573" type="line"/>
      <point x="343" y="585" type="line"/>
      <point x="322" y="634"/>
      <point x="313" y="669"/>
      <point x="301" y="717" type="curve"/>
      <point x="269" y="717" type="line"/>
      <point x="269" y="710" type="line"/>
      <point x="282" y="664"/>
      <point x="307" y="608"/>
    </contour>
    <contour>
      <point x="247" y="573" type="curve"/>
      <point x="247" y="596" type="line"/>
      <point x="229" y="599"/>
      <point x="213" y="623"/>
      <point x="211" y="649" type="curve"/>
      <point x="225" y="649"/>
      <point x="243" y="658"/>
      <point x="243" y="685" type="curve" smooth="yes"/>
      <point x="243" y="707"/>
      <point x="232" y="720"/>
      <point x="214" y="720" type="curve" smooth="yes"/>
      <point x="201" y="720"/>
      <point x="184" y="713"/>
      <point x="184" y="678" type="curve" smooth="yes"/>
      <point x="184" y="622"/>
      <point x="211" y="577"/>
    </contour>
  </outline>
</glyph>
<glyph name="uni1FDE" format="2">
  <advance width="522"/>
  <unicode hex="1FDE"/>
  <outline>
    <contour>
      <point x="272" y="584" type="curve"/>
      <point x="272" y="572" type="line"/>
      <point x="288" y="572" type="line"/>
      <point x="310" y="607"/>
      <point x="338" y="663"/>
      <point x="352" y="709" type="curve"/>
      <point x="352" y="716" type="line"/>
      <point x="320" y="716" type="line"/>
      <point x="308" y="668"/>
      <point x="295" y="633"/>
    </contour>
    <contour>
      <point x="253" y="573" type="curve"/>
      <point x="253" y="596" type="line"/>
      <point x="235" y="599"/>
      <point x="219" y="623"/>
      <point x="217" y="649" type="curve"/>
      <point x="231" y="649"/>
      <point x="249" y="658"/>
      <point x="249" y="685" type="curve" smooth="yes"/>
      <point x="249" y="707"/>
      <point x="238" y="720"/>
      <point x="220" y="720" type="curve" smooth="yes"/>
      <point x="207" y="720"/>
      <point x="190" y="713"/>
      <point x="190" y="678" type="curve" smooth="yes"/>
      <point x="190" y="622"/>
      <point x="217" y="577"/>
    </contour>
  </outline>
</glyph>
<glyph name="uni1FDF" format="2">
  <advance width="456"/>
  <unicode hex="1FDF"/>
  <outline>
    <contour>
      <point x="101" y="739" type="curve"/>
      <point x="124" y="739" type="line"/>
      <point x="127" y="784"/>
      <point x="146" y="804"/>
      <point x="168" y="804" type="curve" smooth="yes"/>
      <point x="209" y="804"/>
      <point x="232" y="739"/>
      <point x="286" y="739" type="curve" smooth="yes"/>
      <point x="322" y="739"/>
      <point x="353" y="767"/>
      <point x="354" y="828" type="curve"/>
      <point x="332" y="828" type="line"/>
      <point x="329" y="786"/>
      <point x="312" y="762"/>
      <point x="286" y="762" type="curve" smooth="yes"/>
      <point x="243" y="762"/>
      <point x="221" y="827"/>
      <point x="168" y="827" type="curve" smooth="yes"/>
      <point x="134" y="827"/>
      <point x="106" y="802"/>
    </contour>
    <contour>
      <point x="259" y="577" type="curve"/>
      <point x="259" y="600" type="line"/>
      <point x="240" y="603"/>
      <point x="224" y="627"/>
      <point x="222" y="653" type="curve"/>
      <point x="236" y="653"/>
      <point x="254" y="662"/>
      <point x="254" y="689" type="curve" smooth="yes"/>
      <point x="254" y="711"/>
      <point x="243" y="724"/>
      <point x="225" y="724" type="curve" smooth="yes"/>
      <point x="212" y="724"/>
      <point x="195" y="717"/>
      <point x="195" y="682" type="curve" smooth="yes"/>
      <point x="195" y="626"/>
      <point x="222" y="581"/>
    </contour>
  </outline>
</glyph>
<glyph name="uni1FED" format="2">
  <advance width="468"/>
  <unicode hex="1FED"/>
  <anchor x="234" y="527" name="_top"/>
  <outline>
    <contour>
      <point x="254" y="618" type="line"/>
      <point x="254" y="627" type="line"/>
      <point x="243" y="662"/>
      <point x="231" y="725"/>
      <point x="229" y="760" type="curve"/>
      <point x="193" y="760" type="line"/>
      <point x="193" y="750" type="line"/>
      <point x="201" y="715"/>
      <point x="223" y="646"/>
      <point x="239" y="618" type="curve"/>
    </contour>
    <contour>
      <point x="134" y="654" type="curve" smooth="yes"/>
      <point x="134" y="631"/>
      <point x="147" y="619"/>
      <point x="160" y="619" type="curve" smooth="yes"/>
      <point x="170" y="619"/>
      <point x="182" y="631"/>
      <point x="182" y="654" type="curve" smooth="yes"/>
      <point x="182" y="679"/>
      <point x="170" y="688"/>
      <point x="160" y="688" type="curve" smooth="yes"/>
      <point x="147" y="688"/>
      <point x="134" y="679"/>
    </contour>
    <contour>
      <point x="286" y="654" type="curve" smooth="yes"/>
      <point x="286" y="631"/>
      <point x="299" y="619"/>
      <point x="310" y="619" type="curve" smooth="yes"/>
      <point x="321" y="619"/>
      <point x="334" y="631"/>
      <point x="334" y="654" type="curve" smooth="yes"/>
      <point x="334" y="679"/>
      <point x="321" y="688"/>
      <point x="310" y="688" type="curve" smooth="yes"/>
      <point x="299" y="688"/>
      <point x="286" y="679"/>
    </contour>
  </outline>
</glyph>
<glyph name="uni1FEE" format="2">
  <advance width="468"/>
  <unicode hex="1FEE"/>
  <outline>
    <contour>
      <point x="214" y="627" type="curve"/>
      <point x="214" y="618" type="line"/>
      <point x="229" y="618" type="line"/>
      <point x="244" y="646"/>
      <point x="267" y="715"/>
      <point x="275" y="750" type="curve"/>
      <point x="275" y="760" type="line"/>
      <point x="238" y="760" type="line"/>
      <point x="236" y="725"/>
      <point x="224" y="662"/>
    </contour>
    <contour>
      <point x="160" y="619" type="curve" smooth="yes"/>
      <point x="170" y="619"/>
      <point x="182" y="631"/>
      <point x="182" y="654" type="curve" smooth="yes"/>
      <point x="182" y="679"/>
      <point x="170" y="688"/>
      <point x="160" y="688" type="curve" smooth="yes"/>
      <point x="147" y="688"/>
      <point x="134" y="679"/>
      <point x="134" y="654" type="curve" smooth="yes"/>
      <point x="134" y="631"/>
      <point x="147" y="619"/>
    </contour>
    <contour>
      <point x="310" y="619" type="curve" smooth="yes"/>
      <point x="321" y="619"/>
      <point x="334" y="631"/>
      <point x="334" y="654" type="curve" smooth="yes"/>
      <point x="334" y="679"/>
      <point x="321" y="688"/>
      <point x="310" y="688" type="curve" smooth="yes"/>
      <point x="299" y="688"/>
      <point x="286" y="679"/>
      <point x="286" y="654" type="curve" smooth="yes"/>
      <point x="286" y="631"/>
      <point x="299" y="619"/>
    </contour>
  </outline>
</glyph>
<glyph name="uni1FEF" format="2">
  <advance width="539"/>
  <unicode hex="1FEF"/>
  <anchor x="236" y="527" name="_top"/>
  <outline>
    <contour>
      <point x="259" y="606" type="curve"/>
      <point x="276" y="606" type="line"/>
      <point x="276" y="615" type="line"/>
      <point x="261" y="651"/>
      <point x="233" y="745"/>
      <point x="225" y="787" type="curve"/>
      <point x="197" y="787" type="line"/>
      <point x="197" y="776" type="line"/>
      <point x="210" y="722"/>
      <point x="239" y="653"/>
    </contour>
  </outline>
</glyph>
<glyph name="uni1FFD" format="2">
  <advance width="533"/>
  <unicode hex="1FFD"/>
  <anchor x="270" y="527" name="_top"/>
  <anchor x="271" y="762" name="top"/>
  <outline>
    <contour>
      <point x="238" y="606" type="line"/>
      <point x="251" y="606" type="line"/>
      <point x="270" y="642"/>
      <point x="292" y="712"/>
      <point x="303" y="753" type="curve"/>
      <point x="303" y="762" type="line"/>
      <point x="268" y="762" type="line"/>
      <point x="261" y="717"/>
      <point x="249" y="656"/>
      <point x="238" y="617" type="curve"/>
    </contour>
  </outline>
</glyph>
<glyph name="uni1FFE" format="2">
  <advance width="231"/>
  <unicode hex="1FFE"/>
  <anchor x="115" y="527" name="_top"/>
  <anchor x="115" y="724" name="top"/>
  <outline>
    <contour>
      <point x="147" y="577" type="curve"/>
      <point x="147" y="600" type="line"/>
      <point x="128" y="603"/>
      <point x="111" y="627"/>
      <point x="110" y="653" type="curve"/>
      <point x="124" y="653"/>
      <point x="142" y="662"/>
      <point x="142" y="689" type="curve" smooth="yes"/>
      <point x="142" y="711"/>
      <point x="131" y="724"/>
      <point x="113" y="724" type="curve" smooth="yes"/>
      <point x="100" y="724"/>
      <point x="83" y="717"/>
      <point x="83" y="682" type="curve" smooth="yes"/>
      <point x="83" y="626"/>
      <point x="110" y="581"/>
    </contour>
  </outline>
</glyph>
<glyph name="emdash" format="2">
  <advance width="967"/>
  <unicode hex="2014"/>
  <outline>
    <contour>
      <point x="39" y="263" type="line"/>
      <point x="928" y="263" type="line"/>
      <point x="928" y="289" type="line"/>
      <point x="39" y="289" type="line"/>
    </contour>
  </outline>
</glyph>
<glyph name="daggerdbl" format="2">
  <advance width="400"/>
  <unicode hex="2021"/>
  <outline>
    <contour>
      <point x="205" y="206" type="line"/>
      <point x="207" y="384" type="line"/>
      <point x="205" y="554" type="line"/>
      <point x="343" y="553" type="line"/>
      <point x="343" y="580" type="line"/>
      <point x="205" y="574" type="line"/>
      <point x="212" y="760" type="line"/>
      <point x="175" y="760" type="line"/>
      <point x="182" y="574" type="line"/>
      <point x="58" y="580" type="line"/>
      <point x="58" y="553" type="line"/>
      <point x="182" y="554" type="line"/>
      <point x="179" y="384" type="line"/>
      <point x="182" y="206" type="line"/>
      <point x="58" y="207" type="line"/>
      <point x="58" y="180" type="line"/>
      <point x="182" y="185" type="line"/>
      <point x="175" y="0" type="line"/>
      <point x="212" y="0" type="line"/>
      <point x="205" y="185" type="line"/>
      <point x="343" y="180" type="line"/>
      <point x="343" y="207" type="line"/>
    </contour>
  </outline>
</glyph>
<glyph name="plussuperior" format="2">
  <advance width="299"/>
  <unicode hex="207A"/>
  <outline>
    <contour>
      <point x="137" y="334" type="line"/>
      <point x="163" y="334" type="line"/>
      <point x="163" y="444" type="line"/>
      <point x="265" y="444" type="line"/>
      <point x="265" y="469" type="line"/>
      <point x="163" y="469" type="line"/>
      <point x="163" y="584" type="line"/>
      <point x="137" y="584" type="line"/>
      <point x="137" y="469" type="line"/>
      <point x="34" y="469" type="line"/>
      <point x="34" y="444" type="line"/>
      <point x="137" y="444" type="line"/>
    </contour>
  </outline>
</glyph>
<glyph name="minussuperior" format="2">
  <advance width="299"/>
  <unicode hex="207B"/>
  <outline>
    <contour>
      <point x="34" y="443" type="line"/>
      <point x="265" y="443" type="line"/>
      <point x="265" y="468" type="line"/>
      <point x="34" y="468" type="line"/>
    </contour>
  </outline>
</glyph>
<glyph name="parenleftsuperior" format="2">
  <advance width="189"/>
  <unicode hex="207D"/>
  <outline>
    <contour>
      <point x="39" y="501" type="curve" smooth="yes"/>
      <point x="39" y="383"/>
      <point x="79" y="293"/>
      <point x="131" y="237" type="curve"/>
      <point x="160" y="237" type="line"/>
      <point x="93" y="307"/>
      <point x="65" y="405"/>
      <point x="65" y="501" type="curve" smooth="yes"/>
      <point x="65" y="599"/>
      <point x="95" y="693"/>
      <point x="160" y="760" type="curve"/>
      <point x="131" y="760" type="line"/>
      <point x="77" y="696"/>
      <point x="39" y="617"/>
    </contour>
  </outline>
</glyph>
<glyph name="parenrightsuperior" format="2">
  <advance width="189"/>
  <unicode hex="207E"/>
  <outline>
    <contour>
      <point x="150" y="501" type="curve" smooth="yes"/>
      <point x="150" y="617"/>
      <point x="112" y="696"/>
      <point x="58" y="760" type="curve"/>
      <point x="29" y="760" type="line"/>
      <point x="94" y="693"/>
      <point x="124" y="599"/>
      <point x="124" y="501" type="curve" smooth="yes"/>
      <point x="124" y="405"/>
      <point x="96" y="307"/>
      <point x="29" y="237" type="curve"/>
      <point x="58" y="237" type="line"/>
      <point x="110" y="293"/>
      <point x="150" y="383"/>
    </contour>
  </outline>
</glyph>
<glyph name="uni20A5" format="2">
  <advance width="608"/>
  <unicode hex="20A5"/>
  <anchor x="298" y="0" name="bottom"/>
  <anchor x="296" y="527" name="top"/>
  <anchor x="572" y="527" name="topright"/>
  <outline>
    <contour>
      <point x="422" y="666" type="line"/>
      <point x="399" y="666" type="line"/>
      <point x="161" y="-110" type="line"/>
      <point x="184" y="-110" type="line"/>
    </contour>
    <component base="m"/>
  </outline>
</glyph>
<glyph name="uni20A9" format="2">
  <advance width="518"/>
  <unicode hex="20A9"/>
  <outline>
    <contour>
      <point x="139" y="0" type="line"/>
      <point x="178" y="0" type="line"/>
      <point x="216" y="288" type="line"/>
      <point x="306" y="288" type="line"/>
      <point x="344" y="0" type="line"/>
      <point x="382" y="0" type="line"/>
      <point x="432" y="288" type="line"/>
      <point x="513" y="288" type="line"/>
      <point x="513" y="312" type="line"/>
      <point x="436" y="312" type="line"/>
      <point x="455" y="424" type="line"/>
      <point x="513" y="424" type="line"/>
      <point x="513" y="448" type="line"/>
      <point x="459" y="448" type="line"/>
      <point x="504" y="714" type="line"/>
      <point x="478" y="714" type="line"/>
      <point x="434" y="448" type="line"/>
      <point x="310" y="448" type="line"/>
      <point x="274" y="714" type="line"/>
      <point x="248" y="714" type="line"/>
      <point x="212" y="448" type="line"/>
      <point x="92" y="448" type="line"/>
      <point x="48" y="714" type="line"/>
      <point x="21" y="714" type="line"/>
      <point x="65" y="448" type="line"/>
      <point x="5" y="448" type="line"/>
      <point x="5" y="424" type="line"/>
      <point x="69" y="424" type="line"/>
      <point x="88" y="312" type="line"/>
      <point x="5" y="312" type="line"/>
      <point x="5" y="288" type="line"/>
      <point x="92" y="288" type="line"/>
    </contour>
    <contour>
      <point x="158" y="29" type="line"/>
      <point x="118" y="288" type="line"/>
      <point x="191" y="288" type="line"/>
    </contour>
    <contour>
      <point x="363" y="26" type="line"/>
      <point x="333" y="288" type="line"/>
      <point x="407" y="288" type="line"/>
    </contour>
    <contour>
      <point x="237" y="448" type="line"/>
      <point x="260" y="661" type="line"/>
      <point x="284" y="448" type="line"/>
    </contour>
    <contour>
      <point x="114" y="312" type="line"/>
      <point x="96" y="424" type="line"/>
      <point x="209" y="424" type="line"/>
      <point x="195" y="312" type="line"/>
    </contour>
    <contour>
      <point x="219" y="312" type="line"/>
      <point x="233" y="424" type="line"/>
      <point x="288" y="424" type="line"/>
      <point x="303" y="312" type="line"/>
    </contour>
    <contour>
      <point x="329" y="312" type="line"/>
      <point x="314" y="424" type="line"/>
      <point x="429" y="424" type="line"/>
      <point x="410" y="312" type="line"/>
    </contour>
  </outline>
</glyph>
<glyph name="versicle" format="2">
  <advance width="366"/>
  <unicode hex="2123"/>
  <anchor x="178" y="0" name="bottom"/>
  <anchor x="178" y="714" name="top"/>
  <anchor x="337" y="714" name="topright"/>
  <outline>
    <contour>
      <point x="272" y="785" type="line"/>
      <point x="55" y="-145" type="line"/>
      <point x="82" y="-145" type="line"/>
      <point x="302" y="803" type="line"/>
      <point x="93" y="853" type="line"/>
      <point x="87" y="829" type="line"/>
    </contour>
    <component base="V"/>
  </outline>
</glyph>
<glyph name="uni2C6A" format="2">
  <advance width="324"/>
  <unicode hex="2C6A"/>
  <anchor x="159" y="-175" name="bottom"/>
  <anchor x="82" y="760" name="top"/>
  <anchor x="237" y="800" name="topright"/>
  <outline>
    <contour>
      <point x="330" y="25" type="line"/>
      <point x="294" y="25" type="line"/>
      <point x="304" y="1" type="line"/>
      <point x="304" y="-175" type="line"/>
      <point x="330" y="-175" type="line"/>
    </contour>
    <component base="k"/>
  </outline>
</glyph>
<glyph name="uni2E4D" format="2">
  <advance width="330"/>
  <unicode hex="2E4D"/>
  <anchor x="165" y="0" name="bottom"/>
  <anchor x="198" y="714" name="top"/>
  <outline>
    <contour>
      <point x="92" y="482" type="line"/>
      <point x="306" y="696" type="line"/>
      <point x="293" y="709" type="line"/>
      <point x="80" y="495" type="line"/>
    </contour>
    <component base="afii10020"/>
  </outline>
</glyph>
<glyph name="uniA662" format="2">
  <advance width="534"/>
  <unicode hex="A662"/>
  <anchor x="194" y="-173" name="bottom"/>
  <anchor x="194" y="714" name="top"/>
  <outline>
    <contour>
      <point x="526" y="714" type="line"/>
      <point x="299" y="714" type="line"/>
      <point x="299" y="0" type="line"/>
      <point x="325" y="0" type="line"/>
      <point x="325" y="689" type="line"/>
      <point x="526" y="689" type="line"/>
    </contour>
    <component base="afii10021"/>
  </outline>
</glyph>
<glyph name="uniA663" format="2">
  <advance width="441"/>
  <unicode hex="A663"/>
  <anchor x="165" y="-173" name="bottom"/>
  <anchor x="185" y="527" name="top"/>
  <outline>
    <contour>
      <point x="433" y="527" type="line"/>
      <point x="243" y="527" type="line"/>
      <point x="243" y="0" type="line"/>
      <point x="269" y="0" type="line"/>
      <point x="269" y="502" type="line"/>
      <point x="433" y="502" type="line"/>
    </contour>
    <component base="afii10069"/>
  </outline>
</glyph>
<glyph name="uniA665" format="2">
  <advance width="444"/>
  <unicode hex="A665"/>
  <anchor x="170" y="0" name="bottom"/>
  <anchor x="170" y="527" name="top"/>
  <outline>
    <contour>
      <point x="436" y="527" type="line"/>
      <point x="245" y="527" type="line"/>
      <point x="245" y="0" type="line"/>
      <point x="271" y="0" type="line"/>
      <point x="271" y="502" type="line"/>
      <point x="436" y="502" type="line"/>
    </contour>
    <component base="afii10077"/>
  </outline>
</glyph>
<glyph name="uniA666" format="2">
  <advance width="787"/>
  <unicode hex="A666"/>
  <anchor x="317" y="0" name="bottom"/>
  <anchor x="317" y="714" name="top"/>
  <anchor x="615" y="714" name="topright"/>
  <outline>
    <contour>
      <point x="779" y="714" type="line"/>
      <point x="544" y="714" type="line"/>
      <point x="558" y="689" type="line"/>
      <point x="779" y="689" type="line"/>
    </contour>
    <component base="M"/>
  </outline>
</glyph>
<glyph name="uniA667" format="2">
  <advance width="579"/>
  <unicode hex="A667"/>
  <anchor x="232" y="0" name="bottom"/>
  <anchor x="234" y="527" name="top"/>
  <outline>
    <contour>
      <point x="561" y="527" type="line"/>
      <point x="392" y="527" type="line"/>
      <point x="392" y="502" type="line"/>
      <point x="561" y="502" type="line"/>
    </contour>
    <component base="afii10078"/>
  </outline>
</glyph>
<glyph name="uniA672" format="2">
  <unicode hex="A672"/>
  <outline>
    <contour>
      <point x="-509" y="447" type="line"/>
      <point x="-297" y="447" type="line"/>
      <point x="-297" y="465" type="line"/>
      <point x="-509" y="465" type="line"/>
    </contour>
    <contour>
      <point x="-509" y="77" type="line"/>
      <point x="-297" y="77" type="line"/>
      <point x="-297" y="95" type="line"/>
      <point x="-509" y="95" type="line"/>
    </contour>
    <contour>
      <point x="-509" y="262" type="line"/>
      <point x="-297" y="262" type="line"/>
      <point x="-297" y="280" type="line"/>
      <point x="-509" y="280" type="line"/>
    </contour>
    <contour>
      <point x="174" y="-51" type="line"/>
      <point x="174" y="-263" type="line"/>
      <point x="192" y="-263" type="line"/>
      <point x="192" y="-51" type="line"/>
    </contour>
    <contour>
      <point x="-195" y="-51" type="line"/>
      <point x="-195" y="-263" type="line"/>
      <point x="-177" y="-263" type="line"/>
      <point x="-177" y="-51" type="line"/>
    </contour>
    <contour>
      <point x="-9" y="-51" type="line"/>
      <point x="-9" y="-263" type="line"/>
      <point x="9" y="-263" type="line"/>
      <point x="9" y="-51" type="line"/>
    </contour>
    <contour>
      <point x="291" y="447" type="line"/>
      <point x="503" y="447" type="line"/>
      <point x="503" y="465" type="line"/>
      <point x="291" y="465" type="line"/>
    </contour>
    <contour>
      <point x="291" y="77" type="line"/>
      <point x="503" y="77" type="line"/>
      <point x="503" y="95" type="line"/>
      <point x="291" y="95" type="line"/>
    </contour>
    <contour>
      <point x="291" y="262" type="line"/>
      <point x="503" y="262" type="line"/>
      <point x="503" y="280" type="line"/>
      <point x="291" y="280" type="line"/>
    </contour>
    <contour>
      <point x="4" y="749" type="line"/>
      <point x="4" y="896" type="line"/>
      <point x="-12" y="896" type="line"/>
      <point x="-12" y="749" type="line"/>
      <point x="-114" y="749" type="line"/>
      <point x="-114" y="733" type="line"/>
      <point x="-12" y="733" type="line"/>
      <point x="-12" y="589" type="line"/>
      <point x="4" y="589" type="line"/>
      <point x="4" y="733" type="line"/>
      <point x="106" y="733" type="line"/>
      <point x="106" y="749" type="line"/>
    </contour>
  </outline>
</glyph>
<glyph name="uniA680" format="2">
  <advance width="395"/>
  <unicode hex="A680"/>
  <anchor x="194" y="-173" name="bottom"/>
  <anchor x="194" y="714" name="top"/>
  <outline>
    <contour>
      <point x="141" y="920" type="line"/>
      <point x="141" y="697" type="line"/>
      <point x="167" y="697" type="line"/>
      <point x="167" y="920" type="line"/>
    </contour>
    <component base="afii10021"/>
  </outline>
</glyph>
<glyph name="uniA681" format="2">
  <advance width="329"/>
  <unicode hex="A681"/>
  <anchor x="166" y="-173" name="bottom"/>
  <anchor x="186" y="527" name="top"/>
  <outline>
    <contour>
      <point x="124" y="739" type="line"/>
      <point x="124" y="524" type="line"/>
      <point x="149" y="524" type="line"/>
      <point x="149" y="739" type="line"/>
    </contour>
    <component base="afii10069" xOffset="1"/>
  </outline>
</glyph>
<glyph name="uniA684" format="2">
  <advance width="709"/>
  <unicode hex="A684"/>
  <anchor x="141" y="0" name="bottom_1"/>
  <anchor x="547" y="0" name="bottom_2"/>
  <anchor x="150" y="714" name="top_1"/>
  <anchor x="544" y="714" name="top_2"/>
  <outline>
    <contour>
      <point x="170" y="388" type="line"/>
      <point x="170" y="363" type="line"/>
      <point x="448" y="363" type="line"/>
      <point x="448" y="388" type="line"/>
    </contour>
    <component base="afii10025"/>
    <component base="afii10028" xOffset="356"/>
  </outline>
</glyph>
<glyph name="uniA69A" format="2">
  <advance width="496"/>
  <unicode hex="A69A"/>
  <anchor x="256" y="0" name="bottom"/>
  <anchor x="256" y="714" name="top"/>
  <outline>
    <contour>
      <point x="236" y="709" type="line"/>
      <point x="236" y="7" type="line"/>
      <point x="262" y="7" type="line"/>
      <point x="262" y="709" type="line"/>
    </contour>
    <component base="uni04E8"/>
  </outline>
</glyph>
<glyph name="uniA69E" format="2">
  <unicode hex="A69E"/>
  <outline>
    <contour>
      <point x="12" y="764" type="line"/>
      <point x="-12" y="764" type="line"/>
      <point x="-12" y="621" type="line"/>
      <point x="-71" y="613"/>
      <point x="-101" y="550"/>
      <point x="-101" y="446" type="curve" smooth="yes"/>
      <point x="-101" y="344"/>
      <point x="-72" y="278"/>
      <point x="-12" y="270" type="curve"/>
      <point x="-12" y="126" type="line"/>
      <point x="12" y="126" type="line"/>
      <point x="12" y="269" type="line"/>
      <point x="74" y="276"/>
      <point x="101" y="340"/>
      <point x="101" y="445" type="curve" smooth="yes"/>
      <point x="101" y="549"/>
      <point x="75" y="615"/>
      <point x="12" y="622" type="curve"/>
    </contour>
    <contour>
      <point x="-12" y="599" type="curve"/>
      <point x="-12" y="292" type="line"/>
      <point x="-57" y="302"/>
      <point x="-77" y="364"/>
      <point x="-77" y="445" type="curve" smooth="yes"/>
      <point x="-77" y="531"/>
      <point x="-55" y="589"/>
    </contour>
    <contour>
      <point x="12" y="599" type="line"/>
      <point x="60" y="592"/>
      <point x="77" y="530"/>
      <point x="77" y="446" type="curve" smooth="yes"/>
      <point x="77" y="361"/>
      <point x="60" y="299"/>
      <point x="12" y="292" type="curve"/>
    </contour>
  </outline>
</glyph>
<glyph name="uniA734" format="2">
  <advance width="721"/>
  <unicode hex="A734"/>
  <anchor x="473" y="0" name="bottom"/>
  <anchor x="473" y="357" name="center"/>
  <anchor x="473" y="714" name="top"/>
  <anchor x="702" y="714" name="topright"/>
  <outline>
    <contour>
      <point x="93" y="281" type="line"/>
      <point x="305" y="281" type="line"/>
      <point x="207" y="714" type="line"/>
      <point x="171" y="714" type="line"/>
      <point x="0" y="0" type="line"/>
      <point x="25" y="0" type="line"/>
    </contour>
    <contour>
      <point x="277" y="306" type="line"/>
      <point x="99" y="306" type="line"/>
      <point x="170" y="612" type="line" smooth="yes"/>
      <point x="177" y="642"/>
      <point x="184" y="668"/>
      <point x="189" y="695" type="curve"/>
      <point x="195" y="666"/>
      <point x="201" y="645"/>
      <point x="208" y="612" type="curve" smooth="yes"/>
    </contour>
    <component base="O" xOffset="225"/>
  </outline>
</glyph>
<glyph name="uniA742" format="2">
  <advance width="370"/>
  <unicode hex="A742"/>
  <anchor x="200" y="0" name="bottom"/>
  <anchor x="200" y="714" name="top"/>
  <anchor x="350" y="714" name="topright"/>
  <outline>
    <contour>
      <point x="162" y="193" type="line"/>
      <point x="173" y="171" type="line"/>
      <point x="354" y="262" type="line"/>
      <point x="343" y="285" type="line"/>
    </contour>
    <component base="K"/>
  </outline>
</glyph>
<glyph name="uniA743" format="2">
  <advance width="316"/>
  <unicode hex="A743"/>
  <anchor x="162" y="0" name="bottom"/>
  <anchor x="84" y="760" name="top"/>
  <anchor x="297" y="760" name="topright"/>
  <outline>
    <contour>
      <point x="149" y="130" type="line"/>
      <point x="160" y="109" type="line"/>
      <point x="328" y="194" type="line"/>
      <point x="317" y="216" type="line"/>
    </contour>
    <component base="k"/>
  </outline>
</glyph>
<glyph name="uniA745" format="2">
  <advance width="316"/>
  <unicode hex="A745"/>
  <anchor x="162" y="0" name="bottom"/>
  <anchor x="84" y="760" name="top"/>
  <anchor x="237" y="800" name="topright"/>
  <outline>
    <contour>
      <point x="149" y="130" type="line"/>
      <point x="160" y="109" type="line"/>
      <point x="328" y="194" type="line"/>
      <point x="317" y="216" type="line"/>
    </contour>
    <component base="uniA741"/>
  </outline>
</glyph>
<glyph name="uniA748" format="2">
  <advance width="331"/>
  <unicode hex="A748"/>
  <anchor x="186" y="0" name="bottom"/>
  <anchor x="167" y="357" name="center"/>
  <anchor x="88" y="714" name="top"/>
  <anchor x="244" y="714" name="topright"/>
  <outline>
    <contour>
      <point x="14" y="589" type="line"/>
      <point x="210" y="589" type="line"/>
      <point x="210" y="614" type="line"/>
      <point x="14" y="614" type="line"/>
    </contour>
    <component base="L"/>
  </outline>
</glyph>
<glyph name="uniA749" format="2">
  <advance width="163"/>
  <unicode hex="A749"/>
  <anchor x="82" y="0" name="bottom"/>
  <anchor x="82" y="264" name="center"/>
  <anchor x="82" y="760" name="top"/>
  <anchor x="143" y="760" name="topright"/>
  <outline>
    <contour>
      <point x="157" y="661" type="line"/>
      <point x="4" y="661" type="line"/>
      <point x="4" y="636" type="line"/>
      <point x="157" y="636" type="line"/>
    </contour>
    <component base="l"/>
  </outline>
</glyph>
<glyph name="uniA74A" format="2">
  <advance width="496"/>
  <unicode hex="A74A"/>
  <anchor x="248" y="0" name="bottom"/>
  <anchor x="248" y="357" name="center"/>
  <anchor x="248" y="714" name="top"/>
  <anchor x="477" y="714" name="topright"/>
  <outline>
    <contour>
      <point x="5" y="363" type="line"/>
      <point x="490" y="363" type="line"/>
      <point x="490" y="388" type="line"/>
      <point x="5" y="388" type="line"/>
    </contour>
    <component base="O"/>
  </outline>
</glyph>
<glyph name="uniA74B" format="2">
  <advance width="393"/>
  <unicode hex="A74B"/>
  <anchor x="197" y="0" name="bottom"/>
  <anchor x="197" y="264" name="center"/>
  <anchor x="197" y="527" name="top"/>
  <anchor x="363" y="527" name="topright"/>
  <outline>
    <contour>
      <point x="0" y="263" type="line"/>
      <point x="389" y="263" type="line"/>
      <point x="389" y="288" type="line"/>
      <point x="0" y="288" type="line"/>
    </contour>
    <component base="o"/>
  </outline>
</glyph>
<glyph name="uniA751" format="2">
  <advance width="412"/>
  <unicode hex="A751"/>
  <anchor x="82" y="-232" name="bottom"/>
  <anchor x="207" y="527" name="top"/>
  <anchor x="382" y="527" name="topright"/>
  <outline>
    <contour>
      <point x="2" y="-142" type="line"/>
      <point x="279" y="-142" type="line"/>
      <point x="279" y="-117" type="line"/>
      <point x="2" y="-117" type="line"/>
    </contour>
    <component base="p"/>
  </outline>
</glyph>
<glyph name="uniA75C" format="2">
  <advance width="408"/>
  <unicode hex="A75C"/>
  <outline>
    <contour>
      <point x="389" y="144" type="line"/>
      <point x="389" y="168" type="line"/>
      <point x="72" y="168" type="line"/>
      <point x="72" y="171" type="line"/>
      <point x="186" y="310" type="line" smooth="yes"/>
      <point x="253" y="391"/>
      <point x="313" y="457"/>
      <point x="313" y="561" type="curve" smooth="yes"/>
      <point x="313" y="660"/>
      <point x="259" y="724"/>
      <point x="170" y="724" type="curve" smooth="yes"/>
      <point x="121" y="724"/>
      <point x="77" y="705"/>
      <point x="45" y="681" type="curve"/>
      <point x="61" y="660" type="line"/>
      <point x="89" y="682"/>
      <point x="128" y="699"/>
      <point x="170" y="699" type="curve" smooth="yes"/>
      <point x="239" y="699"/>
      <point x="286" y="651"/>
      <point x="286" y="560" type="curve" smooth="yes"/>
      <point x="286" y="468"/>
      <point x="238" y="414"/>
      <point x="167" y="328" type="curve" smooth="yes"/>
      <point x="31" y="163" type="line"/>
      <point x="31" y="144" type="line"/>
    </contour>
    <contour>
      <point x="317" y="0" type="line"/>
      <point x="317" y="262" type="line"/>
      <point x="290" y="262" type="line"/>
      <point x="290" y="0" type="line"/>
    </contour>
  </outline>
</glyph>
<glyph name="uniA75E" format="2">
  <advance width="366"/>
  <unicode hex="A75E"/>
  <anchor x="178" y="0" name="bottom"/>
  <anchor x="178" y="714" name="top"/>
  <anchor x="337" y="714" name="topright"/>
  <outline>
    <contour>
      <point x="235" y="723" type="line"/>
      <point x="59" y="-9" type="line"/>
      <point x="80" y="-9" type="line"/>
      <point x="260" y="723" type="line"/>
    </contour>
    <component base="V"/>
  </outline>
</glyph>
<glyph name="uniA764" format="2">
  <advance width="385"/>
  <unicode hex="A764"/>
  <outline>
    <contour>
      <point x="181" y="579" type="curve" smooth="yes"/>
      <point x="102" y="579" type="line"/>
      <point x="102" y="632" type="line"/>
      <point x="204" y="632" type="line"/>
      <point x="204" y="657" type="line"/>
      <point x="102" y="657" type="line"/>
      <point x="102" y="714" type="line"/>
      <point x="75" y="714" type="line"/>
      <point x="75" y="657" type="line"/>
      <point x="13" y="657" type="line"/>
      <point x="13" y="632" type="line"/>
      <point x="75" y="632" type="line"/>
      <point x="75" y="0" type="line"/>
      <point x="102" y="0" type="line"/>
      <point x="102" y="170" type="line"/>
      <point x="173" y="170" type="line" smooth="yes"/>
      <point x="300" y="170"/>
      <point x="354" y="242"/>
      <point x="354" y="385" type="curve" smooth="yes"/>
      <point x="354" y="527"/>
      <point x="299" y="579"/>
    </contour>
    <contour>
      <point x="168" y="195" type="curve" smooth="yes"/>
      <point x="102" y="195" type="line"/>
      <point x="102" y="554" type="line"/>
      <point x="176" y="554" type="line" smooth="yes"/>
      <point x="285" y="554"/>
      <point x="327" y="507"/>
      <point x="327" y="385" type="curve" smooth="yes"/>
      <point x="327" y="260"/>
      <point x="283" y="195"/>
    </contour>
  </outline>
</glyph>
<glyph name="uniA768" format="2">
  <advance width="309"/>
  <unicode hex="A768"/>
  <outline>
    <contour>
      <point x="120" y="-210" type="line"/>
      <point x="120" y="16" type="line"/>
      <point x="309" y="714" type="line"/>
      <point x="284" y="714" type="line"/>
      <point x="136" y="164" type="line" smooth="yes"/>
      <point x="130" y="139"/>
      <point x="125" y="121"/>
      <point x="120" y="85" type="curve"/>
      <point x="116" y="85" type="line"/>
      <point x="119" y="122"/>
      <point x="120" y="148"/>
      <point x="120" y="187" type="curve" smooth="yes"/>
      <point x="120" y="691" type="line"/>
      <point x="176" y="695" type="line"/>
      <point x="176" y="714" type="line"/>
      <point x="37" y="714" type="line"/>
      <point x="37" y="695" type="line"/>
      <point x="94" y="691" type="line"/>
      <point x="94" y="-210" type="line"/>
      <point x="37" y="-213" type="line"/>
      <point x="37" y="-232" type="line"/>
      <point x="176" y="-232" type="line"/>
      <point x="176" y="-213" type="line"/>
    </contour>
  </outline>
</glyph>
<glyph name="uniA772" format="2">
  <advance width="271"/>
  <unicode hex="A772"/>
  <anchor x="82" y="0" name="bottom"/>
  <anchor x="82" y="264" name="center"/>
  <anchor x="82" y="760" name="top"/>
  <anchor x="143" y="760" name="topright"/>
  <outline>
    <contour>
      <point x="83" y="0" type="line"/>
      <point x="266" y="0" type="line"/>
      <point x="266" y="25" type="line"/>
      <point x="83" y="25" type="line"/>
    </contour>
    <contour>
      <point x="236" y="184" type="line"/>
      <point x="82" y="-157" type="line"/>
      <point x="110" y="-157" type="line"/>
      <point x="264" y="184" type="line"/>
    </contour>
    <component base="l"/>
  </outline>
</glyph>
<glyph name="uniA774" format="2">
  <advance width="502"/>
  <unicode hex="A774"/>
  <anchor x="199" y="0" name="bottom"/>
  <anchor x="199" y="527" name="top"/>
  <anchor x="347" y="527" name="topright"/>
  <outline>
    <contour>
      <point x="314" y="0" type="line"/>
      <point x="497" y="0" type="line"/>
      <point x="497" y="25" type="line"/>
      <point x="314" y="25" type="line"/>
    </contour>
    <contour>
      <point x="468" y="184" type="line"/>
      <point x="314" y="-157" type="line"/>
      <point x="342" y="-157" type="line"/>
      <point x="496" y="184" type="line"/>
    </contour>
    <component base="n"/>
  </outline>
</glyph>
<glyph name="uniA776" format="2">
  <advance width="450"/>
  <unicode hex="A776"/>
  <anchor x="150" y="0" name="bottom"/>
  <anchor x="150" y="527" name="top"/>
  <outline>
    <contour>
      <point x="272" y="0" type="line"/>
      <point x="441" y="0" type="line"/>
      <point x="441" y="25" type="line"/>
      <point x="272" y="25" type="line"/>
    </contour>
    <contour>
      <point x="417" y="184" type="line"/>
      <point x="263" y="-157" type="line"/>
      <point x="291" y="-157" type="line"/>
      <point x="445" y="184" type="line"/>
    </contour>
    <component base="uni0280"/>
  </outline>
</glyph>
<glyph name="uniA785" format="2">
  <advance width="256"/>
  <unicode hex="A785"/>
  <outline>
    <contour>
      <point x="199" y="535" type="curve" smooth="yes"/>
      <point x="141" y="535"/>
      <point x="110" y="482"/>
      <point x="96" y="429" type="curve"/>
      <point x="94" y="429" type="line"/>
      <point x="90" y="527" type="line"/>
      <point x="69" y="527" type="line"/>
      <point x="69" y="-232" type="line"/>
      <point x="95" y="-232" type="line"/>
      <point x="95" y="285" type="line" smooth="yes"/>
      <point x="95" y="425"/>
      <point x="134" y="507"/>
      <point x="199" y="507" type="curve" smooth="yes"/>
      <point x="214" y="507"/>
      <point x="226" y="504"/>
      <point x="239" y="498" type="curve"/>
      <point x="247" y="524" type="line"/>
      <point x="233" y="530"/>
      <point x="217" y="535"/>
    </contour>
  </outline>
</glyph>
<glyph name="uniA791" format="2">
  <advance width="408"/>
  <unicode hex="A791"/>
  <anchor x="199" y="0" name="bottom"/>
  <anchor x="199" y="527" name="top"/>
  <anchor x="347" y="527" name="topright"/>
  <outline>
    <contour>
      <point x="329" y="1" type="line"/>
      <point x="329" y="-175" type="line"/>
      <point x="355" y="-175" type="line"/>
      <point x="355" y="27" type="line"/>
      <point x="322" y="27" type="line"/>
    </contour>
    <component base="n"/>
  </outline>
</glyph>
<glyph name="uniA792" format="2">
  <advance width="403"/>
  <unicode hex="A792"/>
  <anchor x="250" y="0" name="bottom"/>
  <anchor x="260" y="714" name="top"/>
  <anchor x="384" y="714" name="topright"/>
  <outline>
    <contour>
      <point x="0" y="363" type="line"/>
      <point x="359" y="363" type="line"/>
      <point x="359" y="388" type="line"/>
      <point x="0" y="388" type="line"/>
    </contour>
    <component base="C"/>
  </outline>
</glyph>
<glyph name="uniA794" format="2">
  <advance width="304"/>
  <unicode hex="A794"/>
  <anchor x="197" y="-164" name="bottom"/>
  <anchor x="207" y="527" name="top"/>
  <anchor x="285" y="527" name="topright"/>
  <outline>
    <contour>
      <point x="258" y="12" type="line" smooth="yes"/>
      <point x="258" y="-75" type="line"/>
      <point x="258" y="-126"/>
      <point x="245" y="-139"/>
      <point x="220" y="-139" type="curve"/>
      <point x="209" y="-139"/>
      <point x="200" y="-137"/>
      <point x="186" y="-132" type="curve" smooth="yes"/>
      <point x="186" y="-158" type="line" smooth="yes"/>
      <point x="200" y="-162"/>
      <point x="210" y="-164"/>
      <point x="221" y="-164" type="curve"/>
      <point x="251" y="-164"/>
      <point x="284" y="-153"/>
      <point x="284" y="-77" type="curve"/>
      <point x="284" y="22" type="line" smooth="yes"/>
    </contour>
    <component base="c"/>
  </outline>
</glyph>
<glyph name="uniA799" format="2">
  <advance width="206"/>
  <unicode hex="A799"/>
  <anchor x="94" y="0" name="bottom"/>
  <anchor x="155" y="765" name="top"/>
  <anchor x="250" y="765" name="topright"/>
  <outline>
    <contour>
      <point x="183" y="312" type="line"/>
      <point x="10" y="312" type="line"/>
      <point x="10" y="288" type="line"/>
      <point x="183" y="288" type="line"/>
    </contour>
    <component base="f" xOffset="3"/>
  </outline>
</glyph>
<glyph name="uniA7A3" format="2">
  <advance width="324"/>
  <unicode hex="A7A3"/>
  <anchor x="162" y="0" name="bottom"/>
  <anchor x="84" y="760" name="top"/>
  <anchor x="297" y="760" name="topright"/>
  <outline>
    <contour>
      <point x="7" y="256" type="line"/>
      <point x="7" y="231" type="line"/>
      <point x="320" y="327" type="line"/>
      <point x="320" y="352" type="line"/>
    </contour>
    <component base="k"/>
  </outline>
</glyph>
<glyph name="uniA7A5" format="2">
  <advance width="419"/>
  <unicode hex="A7A5"/>
  <anchor x="204" y="0" name="bottom"/>
  <anchor x="204" y="527" name="top"/>
  <anchor x="352" y="527" name="topright"/>
  <outline>
    <contour>
      <point x="3" y="229" type="line"/>
      <point x="3" y="204" type="line"/>
      <point x="416" y="332" type="line"/>
      <point x="416" y="357" type="line"/>
    </contour>
    <component base="n" xOffset="5"/>
  </outline>
</glyph>
<glyph name="uniA7A7" format="2">
  <advance width="262"/>
  <unicode hex="A7A7"/>
  <anchor x="82" y="0" name="bottom"/>
  <anchor x="150" y="527" name="top"/>
  <anchor x="236" y="527" name="topright"/>
  <outline>
    <contour>
      <point x="13" y="229" type="line"/>
      <point x="13" y="204" type="line"/>
      <point x="243" y="282" type="line"/>
      <point x="243" y="307" type="line"/>
    </contour>
    <component base="r"/>
  </outline>
</glyph>
<glyph name="uniA7A8" format="2">
  <advance width="379"/>
  <unicode hex="A7A8"/>
  <anchor x="198" y="0" name="bottom"/>
  <anchor x="198" y="714" name="top"/>
  <anchor x="362" y="714" name="topright"/>
  <outline>
    <contour>
      <point x="3" y="301" type="line"/>
      <point x="3" y="275" type="line"/>
      <point x="379" y="424" type="line"/>
      <point x="379" y="450" type="line"/>
    </contour>
    <component base="S" xOffset="3"/>
  </outline>
</glyph>
<glyph name="uniA7AE" format="2">
  <advance width="362"/>
  <unicode hex="A7AE"/>
  <anchor x="181" y="0" name="bottom"/>
  <anchor x="181" y="714" name="top"/>
  <outline>
    <contour>
      <point x="329" y="714" type="line"/>
      <point x="33" y="714" type="line"/>
      <point x="33" y="697" type="line"/>
      <point x="168" y="689" type="line"/>
      <point x="168" y="24" type="line"/>
      <point x="33" y="18" type="line"/>
      <point x="33" y="0" type="line"/>
      <point x="329" y="0" type="line"/>
      <point x="329" y="18" type="line"/>
      <point x="194" y="24" type="line"/>
      <point x="194" y="689" type="line"/>
      <point x="329" y="697" type="line"/>
    </contour>
  </outline>
</glyph>
<glyph name="uniA7B8" format="2">
  <advance width="473"/>
  <unicode hex="A7B8"/>
  <anchor x="236" y="0" name="bottom"/>
  <anchor x="236" y="714" name="top"/>
  <anchor x="453" y="714" name="topright"/>
  <outline>
    <contour>
      <point x="36" y="-62" type="line"/>
      <point x="463" y="741" type="line"/>
      <point x="440" y="752" type="line"/>
      <point x="14" y="-50" type="line"/>
    </contour>
    <component base="U"/>
  </outline>
</glyph>
<glyph name="uniA7B9" format="2">
  <advance width="397"/>
  <unicode hex="A7B9"/>
  <anchor x="198" y="0" name="bottom"/>
  <anchor x="199" y="527" name="top"/>
  <anchor x="377" y="527" name="topright"/>
  <outline>
    <contour>
      <point x="28" y="-80" type="line"/>
      <point x="379" y="574" type="line"/>
      <point x="358" y="585" type="line"/>
      <point x="8" y="-68" type="line"/>
    </contour>
    <component base="u"/>
  </outline>
</glyph>
<glyph name="uniA7C7" format="2">
  <advance width="459"/>
  <unicode hex="A7C7"/>
  <anchor x="229" y="0" name="bottom"/>
  <anchor x="230" y="357" name="center"/>
  <anchor x="230" y="714" name="top"/>
  <anchor x="440" y="714" name="topright"/>
  <outline>
    <contour>
      <point x="92" y="355" type="line"/>
      <point x="393" y="355" type="line"/>
      <point x="393" y="380" type="line"/>
      <point x="92" y="380" type="line"/>
    </contour>
    <component base="D"/>
  </outline>
</glyph>
<glyph name="uniA7CA" format="2">
  <advance width="303"/>
  <unicode hex="A7CA"/>
  <anchor x="152" y="0" name="bottom"/>
  <anchor x="152" y="527" name="top"/>
  <anchor x="284" y="527" name="topright"/>
  <outline>
    <contour>
      <point x="14" y="263" type="line"/>
      <point x="294" y="263" type="line"/>
      <point x="294" y="288" type="line"/>
      <point x="14" y="288" type="line"/>
    </contour>
    <component base="s"/>
  </outline>
</glyph>
<glyph name="uniA7FE" format="2">
  <advance width="212"/>
  <unicode hex="A7FE"/>
  <outline>
    <contour>
      <point x="175" y="0" type="line"/>
      <point x="175" y="19" type="line"/>
      <point x="119" y="22" type="line"/>
      <point x="119" y="903" type="line"/>
      <point x="175" y="907" type="line"/>
      <point x="175" y="926" type="line"/>
      <point x="37" y="926" type="line"/>
      <point x="37" y="907" type="line"/>
      <point x="94" y="903" type="line"/>
      <point x="94" y="22" type="line"/>
      <point x="37" y="19" type="line"/>
      <point x="37" y="0" type="line"/>
    </contour>
  </outline>
</glyph>
<glyph name="uniAB30" format="2">
  <advance width="430"/>
  <unicode hex="AB30"/>
  <anchor x="206" y="0" name="bottom"/>
  <anchor x="206" y="527" name="top"/>
  <outline>
    <contour>
      <point x="3" y="288" type="line"/>
      <point x="3" y="263" type="line"/>
      <point x="410" y="263" type="line"/>
      <point x="410" y="288" type="line"/>
    </contour>
    <component base="uni0251"/>
  </outline>
</glyph>
<glyph name="uniAB60" format="2">
  <advance width="496"/>
  <unicode hex="AB60"/>
  <outline>
    <contour>
      <point x="214" y="0" type="line"/>
      <point x="310" y="0" type="line" smooth="yes"/>
      <point x="407" y="0"/>
      <point x="459" y="55"/>
      <point x="459" y="144" type="curve" smooth="yes"/>
      <point x="459" y="233"/>
      <point x="408" y="288"/>
      <point x="316" y="288" type="curve" smooth="yes"/>
      <point x="241" y="288" type="line"/>
      <point x="241" y="527" type="line"/>
      <point x="214" y="527" type="line"/>
    </contour>
    <contour>
      <point x="86" y="0" type="line"/>
      <point x="112" y="0" type="line"/>
      <point x="112" y="527" type="line"/>
      <point x="86" y="527" type="line"/>
    </contour>
    <contour>
      <point x="241" y="25" type="line"/>
      <point x="241" y="263" type="line"/>
      <point x="313" y="263" type="line" smooth="yes"/>
      <point x="391" y="263"/>
      <point x="432" y="221"/>
      <point x="432" y="144" type="curve" smooth="yes"/>
      <point x="432" y="69"/>
      <point x="392" y="25"/>
      <point x="307" y="25" type="curve" smooth="yes"/>
    </contour>
  </outline>
</glyph>
<glyph name="uniAB61" format="2">
  <advance width="525"/>
  <unicode hex="AB61"/>
  <anchor x="351" y="0" name="bottom"/>
  <anchor x="341" y="527" name="top"/>
  <anchor x="507" y="527" name="topright"/>
  <outline>
    <contour>
      <point x="238" y="273" type="line"/>
      <point x="239" y="297" type="line"/>
      <point x="88" y="297" type="line"/>
      <point x="88" y="527" type="line"/>
      <point x="62" y="527" type="line"/>
      <point x="62" y="0" type="line"/>
      <point x="88" y="0" type="line"/>
      <point x="88" y="273" type="line"/>
    </contour>
    <component base="e" xOffset="156"/>
  </outline>
</glyph>
<glyph name="uniFE20" format="2">
  <unicode hex="FE20"/>
  <outline>
    <contour>
      <point x="-238" y="587" type="curve"/>
      <point x="-215" y="587" type="line"/>
      <point x="-177" y="689"/>
      <point x="-99" y="739"/>
      <point x="2" y="739" type="curve"/>
      <point x="5" y="739" type="line"/>
      <point x="5" y="764" type="line"/>
      <point x="2" y="764" type="line" smooth="yes"/>
      <point x="-101" y="764"/>
      <point x="-194" y="713"/>
    </contour>
  </outline>
</glyph>
<glyph name="uniFE21" format="2">
  <unicode hex="FE21"/>
  <outline>
    <contour>
      <point x="-2" y="764" type="curve" smooth="yes"/>
      <point x="-5" y="764" type="line"/>
      <point x="-5" y="729" type="line"/>
      <point x="-2" y="729" type="line"/>
      <point x="98" y="729"/>
      <point x="168" y="683"/>
      <point x="206" y="587" type="curve"/>
      <point x="238" y="587" type="line"/>
      <point x="195" y="713"/>
      <point x="101" y="764"/>
    </contour>
  </outline>
</glyph>
<glyph name="uniFE22" format="2">
  <unicode hex="FE22"/>
  <outline>
    <contour>
      <point x="-140" y="646" type="curve"/>
      <point x="-140" y="672" type="line"/>
      <point x="-192" y="693"/>
      <point x="-224" y="707"/>
      <point x="-266" y="707" type="curve" smooth="yes"/>
      <point x="-317" y="707"/>
      <point x="-363" y="686"/>
      <point x="-376" y="607" type="curve"/>
      <point x="-351" y="607" type="line"/>
      <point x="-344" y="644"/>
      <point x="-323" y="682"/>
      <point x="-266" y="682" type="curve" smooth="yes"/>
      <point x="-219" y="682"/>
      <point x="-179" y="660"/>
    </contour>
  </outline>
</glyph>
<glyph name="uniFE23" format="2">
  <unicode hex="FE23"/>
  <outline>
    <contour>
      <point x="0" y="672" type="curve"/>
      <point x="0" y="646" type="line"/>
      <point x="52" y="625"/>
      <point x="85" y="611"/>
      <point x="127" y="611" type="curve" smooth="yes"/>
      <point x="177" y="611"/>
      <point x="223" y="632"/>
      <point x="236" y="711" type="curve"/>
      <point x="215" y="711" type="line"/>
      <point x="207" y="674"/>
      <point x="184" y="636"/>
      <point x="126" y="636" type="curve" smooth="yes"/>
      <point x="80" y="636"/>
      <point x="39" y="658"/>
    </contour>
  </outline>
</glyph>
<glyph name="combiningconjoiningmacron" format="2">
  <unicode hex="FE26"/>
  <outline>
    <contour>
      <point x="-203" y="677" type="line"/>
      <point x="-203" y="652" type="line"/>
      <point x="202" y="652" type="line"/>
      <point x="202" y="677" type="line"/>
    </contour>
  </outline>
</glyph>
<glyph name="uniFE2E" format="2">
  <unicode hex="FE2E"/>
  <outline>
    <contour>
      <point x="-70" y="623" type="curve"/>
      <point x="115" y="623" type="line"/>
      <point x="115" y="646" type="line"/>
      <point x="-86" y="646" type="line" smooth="yes"/>
      <point x="-108" y="646"/>
      <point x="-116" y="635"/>
      <point x="-116" y="613" type="curve" smooth="yes"/>
      <point x="-116" y="590"/>
      <point x="-108" y="578"/>
      <point x="-94" y="578" type="curve" smooth="yes"/>
      <point x="-78" y="578"/>
      <point x="-70" y="594"/>
    </contour>
  </outline>
</glyph>
<glyph name="uniFE2F" format="2">
  <unicode hex="FE2F"/>
  <outline>
    <contour>
      <point x="-116" y="623" type="line"/>
      <point x="86" y="623" type="line" smooth="yes"/>
      <point x="108" y="623"/>
      <point x="115" y="634"/>
      <point x="115" y="656" type="curve" smooth="yes"/>
      <point x="115" y="679"/>
      <point x="108" y="691"/>
      <point x="94" y="691" type="curve" smooth="yes"/>
      <point x="78" y="691"/>
      <point x="70" y="675"/>
      <point x="70" y="646" type="curve"/>
      <point x="-116" y="646" type="line"/>
    </contour>
  </outline>
</glyph>
<glyph name="uni02E6_uni02E7_uni02E5" format="2">
  <advance width="526"/>
  <outline>
    <contour>
      <point x="386" y="0" type="line"/>
      <point x="450" y="0" type="line"/>
      <point x="450" y="688" type="line"/>
      <point x="386" y="688" type="line"/>
      <point x="219" y="396" type="line"/>
      <point x="84" y="539" type="line"/>
      <point x="38" y="491" type="line"/>
      <point x="231" y="288" type="line"/>
      <point x="386" y="559" type="line"/>
    </contour>
  </outline>
</glyph>
<glyph name="uni03D0.alt" format="2">
  <advance width="398"/>
  <anchor x="199" y="-10" name="bottom"/>
  <anchor x="199" y="765" name="top"/>
  <outline>
    <contour>
      <point x="204" y="765" type="curve" smooth="yes"/>
      <point x="114" y="765"/>
      <point x="69" y="698"/>
      <point x="69" y="587" type="curve" smooth="yes"/>
      <point x="69" y="192" type="line" smooth="yes"/>
      <point x="69" y="47"/>
      <point x="120" y="-10"/>
      <point x="206" y="-10" type="curve" smooth="yes"/>
      <point x="294" y="-10"/>
      <point x="353" y="52"/>
      <point x="353" y="193" type="curve" smooth="yes"/>
      <point x="353" y="306"/>
      <point x="316" y="383"/>
      <point x="229" y="393" type="curve"/>
      <point x="229" y="397" type="line"/>
      <point x="304" y="408"/>
      <point x="336" y="481"/>
      <point x="336" y="582" type="curve" smooth="yes"/>
      <point x="336" y="684"/>
      <point x="303" y="765"/>
    </contour>
    <contour>
      <point x="205" y="740" type="curve" smooth="yes"/>
      <point x="277" y="740"/>
      <point x="309" y="688"/>
      <point x="309" y="580" type="curve" smooth="yes"/>
      <point x="309" y="459"/>
      <point x="268" y="410"/>
      <point x="186" y="410" type="curve" smooth="yes"/>
      <point x="169" y="410" type="line"/>
      <point x="169" y="382" type="line"/>
      <point x="186" y="382" type="line" smooth="yes"/>
      <point x="281" y="382"/>
      <point x="326" y="319"/>
      <point x="326" y="194" type="curve" smooth="yes"/>
      <point x="326" y="77"/>
      <point x="287" y="15"/>
      <point x="204" y="15" type="curve" smooth="yes"/>
      <point x="131" y="15"/>
      <point x="95" y="63"/>
      <point x="95" y="198" type="curve" smooth="yes"/>
      <point x="95" y="579" type="line" smooth="yes"/>
      <point x="95" y="678"/>
      <point x="126" y="740"/>
    </contour>
  </outline>
</glyph>
<glyph name="uni1FCD02C9" format="2">
  <advance width="307"/>
  <anchor x="158" y="527" name="_top"/>
  <anchor x="158" y="854" name="top"/>
  <outline>
    <contour>
      <point x="191" y="851" type="curve"/>
      <point x="159" y="851" type="line"/>
      <point x="159" y="844" type="line"/>
      <point x="172" y="798"/>
      <point x="200" y="742"/>
      <point x="223" y="707" type="curve"/>
      <point x="239" y="707" type="line"/>
      <point x="239" y="719" type="line"/>
      <point x="216" y="768"/>
      <point x="203" y="803"/>
    </contour>
    <contour>
      <point x="242" y="641" type="line"/>
      <point x="73" y="641" type="line"/>
      <point x="73" y="617" type="line"/>
      <point x="242" y="617" type="line"/>
    </contour>
    <contour>
      <point x="106" y="854" type="curve" smooth="yes"/>
      <point x="89" y="854"/>
      <point x="78" y="841"/>
      <point x="78" y="819" type="curve" smooth="yes"/>
      <point x="78" y="792"/>
      <point x="95" y="783"/>
      <point x="110" y="783" type="curve"/>
      <point x="108" y="757"/>
      <point x="92" y="733"/>
      <point x="73" y="730" type="curve"/>
      <point x="73" y="707" type="line"/>
      <point x="109" y="711"/>
      <point x="137" y="756"/>
      <point x="137" y="812" type="curve" smooth="yes"/>
      <point x="137" y="847"/>
      <point x="120" y="854"/>
    </contour>
  </outline>
</glyph>
<glyph name="uni1FCD0306" format="2">
  <advance width="285"/>
  <anchor x="143" y="527" name="_top"/>
  <anchor x="143" y="874" name="top"/>
  <outline>
    <contour>
      <point x="142" y="594" type="curve" smooth="yes"/>
      <point x="200" y="594"/>
      <point x="238" y="635"/>
      <point x="240" y="698" type="curve"/>
      <point x="218" y="698" type="line"/>
      <point x="216" y="651"/>
      <point x="189" y="617"/>
      <point x="143" y="617" type="curve" smooth="yes"/>
      <point x="98" y="617"/>
      <point x="70" y="649"/>
      <point x="68" y="698" type="curve"/>
      <point x="46" y="698" type="line"/>
      <point x="48" y="629"/>
      <point x="90" y="594"/>
    </contour>
    <contour>
      <point x="62" y="750" type="curve"/>
      <point x="62" y="727" type="line"/>
      <point x="98" y="731"/>
      <point x="125" y="776"/>
      <point x="125" y="832" type="curve" smooth="yes"/>
      <point x="125" y="867"/>
      <point x="108" y="874"/>
      <point x="95" y="874" type="curve" smooth="yes"/>
      <point x="77" y="874"/>
      <point x="66" y="861"/>
      <point x="66" y="839" type="curve" smooth="yes"/>
      <point x="66" y="812"/>
      <point x="84" y="803"/>
      <point x="98" y="803" type="curve"/>
      <point x="97" y="777"/>
      <point x="80" y="753"/>
    </contour>
    <contour>
      <point x="208" y="727" type="curve"/>
      <point x="224" y="727" type="line"/>
      <point x="224" y="739" type="line"/>
      <point x="201" y="788"/>
      <point x="189" y="823"/>
      <point x="176" y="871" type="curve"/>
      <point x="144" y="871" type="line"/>
      <point x="144" y="864" type="line"/>
      <point x="158" y="818"/>
      <point x="186" y="762"/>
    </contour>
  </outline>
</glyph>
<glyph name="uni1FCE02C9" format="2">
  <advance width="308"/>
  <anchor x="153" y="527" name="_top"/>
  <anchor x="153" y="854" name="top"/>
  <outline>
    <contour>
      <point x="159" y="718" type="curve"/>
      <point x="159" y="706" type="line"/>
      <point x="175" y="706" type="line"/>
      <point x="197" y="741"/>
      <point x="225" y="797"/>
      <point x="239" y="843" type="curve"/>
      <point x="239" y="850" type="line"/>
      <point x="207" y="850" type="line"/>
      <point x="194" y="802"/>
      <point x="182" y="767"/>
    </contour>
    <contour>
      <point x="66" y="617" type="line"/>
      <point x="235" y="617" type="line"/>
      <point x="235" y="641" type="line"/>
      <point x="66" y="641" type="line"/>
    </contour>
    <contour>
      <point x="83" y="730" type="curve"/>
      <point x="83" y="707" type="line"/>
      <point x="119" y="711"/>
      <point x="146" y="756"/>
      <point x="146" y="812" type="curve" smooth="yes"/>
      <point x="146" y="847"/>
      <point x="130" y="854"/>
      <point x="116" y="854" type="curve" smooth="yes"/>
      <point x="98" y="854"/>
      <point x="87" y="841"/>
      <point x="87" y="819" type="curve" smooth="yes"/>
      <point x="87" y="792"/>
      <point x="105" y="783"/>
      <point x="119" y="783" type="curve"/>
      <point x="118" y="757"/>
      <point x="101" y="733"/>
    </contour>
  </outline>
</glyph>
<glyph name="uni1FCE0306" format="2">
  <advance width="296"/>
  <anchor x="146" y="527" name="_top"/>
  <anchor x="146" y="874" name="top"/>
  <outline>
    <contour>
      <point x="142" y="594" type="curve" smooth="yes"/>
      <point x="200" y="594"/>
      <point x="238" y="635"/>
      <point x="240" y="698" type="curve"/>
      <point x="218" y="698" type="line"/>
      <point x="216" y="651"/>
      <point x="189" y="617"/>
      <point x="143" y="617" type="curve" smooth="yes"/>
      <point x="98" y="617"/>
      <point x="70" y="649"/>
      <point x="68" y="698" type="curve"/>
      <point x="46" y="698" type="line"/>
      <point x="48" y="629"/>
      <point x="90" y="594"/>
    </contour>
    <contour>
      <point x="93" y="750" type="curve"/>
      <point x="93" y="727" type="line"/>
      <point x="129" y="731"/>
      <point x="157" y="776"/>
      <point x="157" y="832" type="curve" smooth="yes"/>
      <point x="157" y="867"/>
      <point x="140" y="874"/>
      <point x="126" y="874" type="curve" smooth="yes"/>
      <point x="109" y="874"/>
      <point x="98" y="861"/>
      <point x="98" y="839" type="curve" smooth="yes"/>
      <point x="98" y="812"/>
      <point x="115" y="803"/>
      <point x="130" y="803" type="curve"/>
      <point x="128" y="777"/>
      <point x="112" y="753"/>
    </contour>
    <contour>
      <point x="165" y="738" type="curve"/>
      <point x="165" y="726" type="line"/>
      <point x="181" y="726" type="line"/>
      <point x="204" y="761"/>
      <point x="232" y="817"/>
      <point x="245" y="863" type="curve"/>
      <point x="245" y="870" type="line"/>
      <point x="213" y="870" type="line"/>
      <point x="201" y="822"/>
      <point x="188" y="787"/>
    </contour>
  </outline>
</glyph>
<glyph name="uni1FDD02C9" format="2">
  <advance width="309"/>
  <anchor x="158" y="527" name="_top"/>
  <anchor x="158" y="854" name="top"/>
  <outline>
    <contour>
      <point x="184" y="851" type="curve"/>
      <point x="152" y="851" type="line"/>
      <point x="152" y="844" type="line"/>
      <point x="165" y="798"/>
      <point x="190" y="742"/>
      <point x="210" y="707" type="curve"/>
      <point x="226" y="707" type="line"/>
      <point x="226" y="719" type="line"/>
      <point x="205" y="768"/>
      <point x="196" y="803"/>
    </contour>
    <contour>
      <point x="244" y="641" type="line"/>
      <point x="76" y="641" type="line"/>
      <point x="76" y="617" type="line"/>
      <point x="244" y="617" type="line"/>
    </contour>
    <contour>
      <point x="100" y="854" type="curve" smooth="yes"/>
      <point x="87" y="854"/>
      <point x="70" y="847"/>
      <point x="70" y="812" type="curve" smooth="yes"/>
      <point x="70" y="756"/>
      <point x="97" y="711"/>
      <point x="133" y="707" type="curve"/>
      <point x="133" y="730" type="line"/>
      <point x="115" y="733"/>
      <point x="98" y="757"/>
      <point x="97" y="783" type="curve"/>
      <point x="111" y="783"/>
      <point x="129" y="792"/>
      <point x="129" y="819" type="curve" smooth="yes"/>
      <point x="129" y="841"/>
      <point x="118" y="854"/>
    </contour>
  </outline>
</glyph>
<glyph name="uni1FDD0306" format="2">
  <advance width="285"/>
  <anchor x="143" y="527" name="_top"/>
  <anchor x="143" y="874" name="top"/>
  <outline>
    <contour>
      <point x="143" y="594" type="curve" smooth="yes"/>
      <point x="200" y="594"/>
      <point x="238" y="635"/>
      <point x="240" y="698" type="curve"/>
      <point x="218" y="698" type="line"/>
      <point x="216" y="651"/>
      <point x="189" y="617"/>
      <point x="144" y="617" type="curve" smooth="yes"/>
      <point x="98" y="617"/>
      <point x="71" y="649"/>
      <point x="68" y="698" type="curve"/>
      <point x="47" y="698" type="line"/>
      <point x="49" y="629"/>
      <point x="90" y="594"/>
    </contour>
    <contour>
      <point x="108" y="727" type="curve"/>
      <point x="108" y="750" type="line"/>
      <point x="90" y="753"/>
      <point x="73" y="777"/>
      <point x="72" y="803" type="curve"/>
      <point x="86" y="803"/>
      <point x="104" y="812"/>
      <point x="104" y="839" type="curve" smooth="yes"/>
      <point x="104" y="861"/>
      <point x="93" y="874"/>
      <point x="75" y="874" type="curve" smooth="yes"/>
      <point x="62" y="874"/>
      <point x="45" y="867"/>
      <point x="45" y="832" type="curve" smooth="yes"/>
      <point x="45" y="776"/>
      <point x="72" y="731"/>
    </contour>
    <contour>
      <point x="180" y="727" type="curve"/>
      <point x="196" y="727" type="line"/>
      <point x="196" y="739" type="line"/>
      <point x="175" y="788"/>
      <point x="166" y="823"/>
      <point x="154" y="871" type="curve"/>
      <point x="122" y="871" type="line"/>
      <point x="122" y="864" type="line"/>
      <point x="136" y="818"/>
      <point x="160" y="762"/>
    </contour>
  </outline>
</glyph>
<glyph name="uni1FDE02C9" format="2">
  <advance width="299"/>
  <anchor x="150" y="527" name="_top"/>
  <anchor x="150" y="854" name="top"/>
  <outline>
    <contour>
      <point x="150" y="718" type="curve"/>
      <point x="150" y="706" type="line"/>
      <point x="166" y="706" type="line"/>
      <point x="188" y="741"/>
      <point x="216" y="797"/>
      <point x="230" y="843" type="curve"/>
      <point x="230" y="850" type="line"/>
      <point x="198" y="850" type="line"/>
      <point x="186" y="802"/>
      <point x="173" y="767"/>
    </contour>
    <contour>
      <point x="66" y="617" type="line"/>
      <point x="234" y="617" type="line"/>
      <point x="234" y="641" type="line"/>
      <point x="66" y="641" type="line"/>
    </contour>
    <contour>
      <point x="135" y="707" type="curve"/>
      <point x="135" y="730" type="line"/>
      <point x="117" y="733"/>
      <point x="100" y="757"/>
      <point x="98" y="783" type="curve"/>
      <point x="113" y="783"/>
      <point x="130" y="792"/>
      <point x="130" y="819" type="curve" smooth="yes"/>
      <point x="130" y="841"/>
      <point x="120" y="854"/>
      <point x="102" y="854" type="curve" smooth="yes"/>
      <point x="88" y="854"/>
      <point x="72" y="847"/>
      <point x="72" y="812" type="curve" smooth="yes"/>
      <point x="72" y="756"/>
      <point x="99" y="711"/>
    </contour>
  </outline>
</glyph>
<glyph name="uni1FDE0306" format="2">
  <advance width="285"/>
  <anchor x="143" y="527" name="_top"/>
  <anchor x="143" y="864" name="top"/>
  <outline>
    <contour>
      <point x="142" y="594" type="curve" smooth="yes"/>
      <point x="200" y="594"/>
      <point x="238" y="635"/>
      <point x="240" y="698" type="curve"/>
      <point x="218" y="698" type="line"/>
      <point x="216" y="651"/>
      <point x="189" y="617"/>
      <point x="143" y="617" type="curve" smooth="yes"/>
      <point x="98" y="617"/>
      <point x="70" y="649"/>
      <point x="68" y="698" type="curve"/>
      <point x="46" y="698" type="line"/>
      <point x="48" y="629"/>
      <point x="90" y="594"/>
    </contour>
    <contour>
      <point x="129" y="717" type="curve"/>
      <point x="129" y="740" type="line"/>
      <point x="110" y="743"/>
      <point x="94" y="767"/>
      <point x="92" y="793" type="curve"/>
      <point x="107" y="793"/>
      <point x="124" y="802"/>
      <point x="124" y="829" type="curve" smooth="yes"/>
      <point x="124" y="851"/>
      <point x="113" y="864"/>
      <point x="96" y="864" type="curve" smooth="yes"/>
      <point x="82" y="864"/>
      <point x="65" y="857"/>
      <point x="65" y="822" type="curve" smooth="yes"/>
      <point x="65" y="766"/>
      <point x="93" y="721"/>
    </contour>
    <contour>
      <point x="148" y="716" type="line"/>
      <point x="164" y="716" type="line"/>
      <point x="187" y="751"/>
      <point x="215" y="807"/>
      <point x="228" y="853" type="curve"/>
      <point x="228" y="860" type="line"/>
      <point x="196" y="860" type="line"/>
      <point x="184" y="812"/>
      <point x="171" y="777"/>
      <point x="148" y="728" type="curve"/>
    </contour>
  </outline>
</glyph>
